<?xml version="1.0" encoding="UTF-8"?><!DOCTYPE svg PUBLIC "-//W3C//DTD SVG 1.1//EN" "http://www.w3.org/Graphics/SVG/1.1/DTD/svg11.dtd"><svg xmlns="http://www.w3.org/2000/svg" xmlns:xlink="http://www.w3.org/1999/xlink"><defs>
    <clipPath id="clip0">
      <rect width="128" height="24" fill="white"/>
    </clipPath>
  </defs><symbol id="email" viewBox="0 0 20 15" preserveAspectRatio="none">
    <line x1="1.65" y1="5.84766" x2="1.65" y2="13.8477" stroke="currentColor" stroke-width="1.3"/>
    <line x1="18.65" y1="5.84766" x2="18.65" y2="13.8477" stroke="currentColor" stroke-width="1.3"/>
    <line x1="1" y1="13.1977" x2="19" y2="13.1977" stroke="currentColor" stroke-width="1.3"/>
    <line x1="1" y1="1.19766" x2="19" y2="1.19766" stroke="currentColor" stroke-width="1.3"/>
    <path d="M18.35 3.02975L10 9.5242L1.65 3.02975V1.49766H4.5L10 1.49766H15H18.35V3.02975Z" stroke="currentColor" stroke-width="1.3"/>
</symbol><symbol id="fb" viewBox="0 0 28 33" preserveAspectRatio="none">
    <path d="M21 2.75H17.5C15.9529 2.75 14.4692 3.46024 13.3752 4.72447C12.2813 5.98871 11.6667 7.70337 11.6667 9.49127V13.536H8.16669V18.929H11.6667V29.7151H16.3334V18.929H19.8334L21 13.536H16.3334V9.49127C16.3334 9.13369 16.4563 8.79076 16.6751 8.53791C16.8939 8.28506 17.1906 8.14302 17.5 8.14302H21V2.75Z" stroke="currentColor" stroke-width="1.1" stroke-linecap="round" stroke-linejoin="round"/>
</symbol><symbol id="footer-logo-name" viewBox="0 0 128 24">
  <g clip-path="url(#clip0)">
    <path d="M1.60253 22.0513C0.468358 20.3682 -0.0946573 18.3503 3.016e-05 16.3077V7.79487C-0.137317 5.73031 0.390444 3.67661 1.50238 1.94872C2.6041 0.615385 4.30676 0 6.81067 0C9.31458 0 10.9171 0.615385 11.9187 1.74359C13.006 3.17255 13.5409 4.96181 13.421 6.76923V8.82051H8.51333V6.46154C8.55297 5.76385 8.45065 5.06533 8.21286 4.41026C8.08576 4.14583 7.88431 3.9264 7.63443 3.78018C7.38455 3.63395 7.09766 3.56763 6.81067 3.58974C6.10958 3.58974 5.60879 3.79487 5.40848 4.30769C5.18191 5.03643 5.08025 5.79984 5.10801 6.5641V17.5385C5.05512 18.2799 5.19327 19.0227 5.50864 19.6923C5.70895 20.2051 6.20973 20.4103 6.91083 20.4103C7.61192 20.4103 8.01255 20.2051 8.21286 19.6923C8.44058 18.9992 8.54242 18.2692 8.51333 17.5385V15.0769H13.421V17.1282C13.5229 18.9651 12.9911 20.7803 11.9187 22.2564C10.9171 23.4872 9.21443 24.1026 6.81067 24.1026C4.40692 24 2.6041 23.3846 1.60253 22.0513Z" fill="#111111"/>
    <path d="M19.3302 0.307617H25.0391L29.2457 23.6922H24.6385L23.8372 18.7692H20.5321L19.7308 23.6922H15.0235L19.3302 0.307617ZM23.4366 15.6922L22.2347 6.56403L21.0329 15.6922H23.4366Z" fill="#111111"/>
    <path d="M32.7512 4.20505H29.3459V0.307617H41.2645V4.10249H37.8592V23.6922H32.7512V4.20505Z" fill="#111111"/>
    <path d="M50.3787 0.307617H59.1925V2.76916H53.4836V10.4615H58.0908V12.8204H53.4836V21.4358H59.1925V23.7948H50.2786V0.307617H50.3787Z" fill="#111111"/>
    <path d="M61.7966 0.307617H64L70.5102 15.7948V0.307617H73.1142V23.6922H71.1111L64.5008 7.69223V23.6922H61.7966V0.307617Z" fill="#111111"/>
    <path d="M76.1189 0.307617H84.9327V2.76916H79.2238V10.4615H83.831V12.8204H79.2238V21.4358H84.9327V23.7948H76.1189V0.307617Z" fill="#111111"/>
    <path d="M87.5368 0.3076H92.144C93.9564 0.179397 95.7575 0.685711 97.2519 1.7435C98.3537 2.66657 98.8544 4.3076 98.8544 6.46145C98.8544 9.4358 97.953 11.282 96.0501 11.8973L99.2551 23.5897H96.1502L93.1455 12.6153H90.6416V23.5897H87.4366V0.3076H87.5368ZM91.9437 10.3589C92.9762 10.446 94.0053 10.1553 94.8482 9.53837C95.4491 9.02555 95.7496 7.99991 95.7496 6.46145C95.7774 5.69719 95.6757 4.93378 95.4491 4.20504C95.2237 3.68211 94.8366 3.24964 94.3474 2.97427C93.6576 2.65236 92.9003 2.51137 92.144 2.56401H90.7418V10.2563H91.9437V10.3589Z" fill="#111111"/>
    <path d="M102.861 21.9487C101.82 20.1554 101.331 18.0821 101.459 15.9999V8.20507C101.434 6.71875 101.602 5.23567 101.959 3.79481C102.294 2.71811 102.962 1.78218 103.862 1.12815C104.981 0.450275 106.271 0.128917 107.568 0.20507C109.671 0.20507 111.174 0.71789 112.075 1.8461C113.112 3.33582 113.608 5.14977 113.477 6.9743V7.79481H110.473V7.07687C110.477 6.21789 110.41 5.36008 110.272 4.51276C110.188 3.97732 109.9 3.49792 109.471 3.17943C108.908 2.80104 108.24 2.62099 107.568 2.66661C106.85 2.61949 106.139 2.83785 105.565 3.28199C105.329 3.48529 105.137 3.73569 104.999 4.01787C104.861 4.30004 104.781 4.60805 104.764 4.92302C104.632 5.83993 104.565 6.76543 104.563 7.69225V16.4102C104.49 17.7384 104.694 19.0674 105.164 20.3076C105.565 21.1281 106.366 21.4358 107.568 21.4358C108.043 21.4964 108.524 21.4119 108.952 21.1929C109.38 20.9739 109.734 20.6302 109.972 20.2051C110.501 18.9081 110.741 17.5064 110.673 16.1025V14.4615H107.768V12.1025H113.577V23.6923H111.574L111.274 21.0256C111.011 21.9193 110.465 22.6975 109.72 23.2364C108.976 23.7753 108.078 24.0441 107.167 23.9999C106.34 24.0498 105.513 23.8885 104.761 23.5304C104.01 23.1724 103.357 22.6289 102.861 21.9487Z" fill="#111111"/>
    <path d="M119.987 15.4871L115.08 0.410156H118.084L121.59 11.6922L124.995 0.410156H128L123.092 15.4871V23.6922H120.088V15.4871H119.987Z" fill="#111111"/>
  </g>
  
</symbol><symbol id="gather-mass" viewBox="0 0 268 200" preserveAspectRatio="none">
    <circle cx="136" cy="100" r="100" fill="#68B738"/>
    <g>
      <path d="M246.2 55.5999C248.509 51.9261 251.578 48.7891 255.2 46.3999C257.2 44.9999 258.4 44.9999 259.6 47.5999C261.2 51.3999 262.6 55.3999 261.4 59.5999C261.182 60.3122 261.14 61.0671 261.28 61.799C261.419 62.5309 261.735 63.2177 262.2 63.7999C263.4 65.3999 264.4 66.9999 265.4 68.3999C266.761 70.1274 267.644 72.1825 267.96 74.359C268.276 76.5354 268.014 78.7567 267.2 80.7999C266.466 82.7835 266.327 84.9384 266.8 86.9999C267.2 88.9799 267.2 91.0199 266.8 92.9999C266.638 94.4827 266.038 95.8837 265.076 97.0237C264.115 98.1637 262.835 98.991 261.4 99.3999C258.842 99.8867 256.559 101.314 255 103.4C254.811 103.707 254.546 103.961 254.231 104.136C253.916 104.311 253.561 104.402 253.2 104.4C250.8 104.8 244.8 99.3999 244.8 96.9999V95.7999C245 88.5999 244.6 87.9999 238 84.9999C236.619 84.5127 235.381 83.6877 234.4 82.5999C233.2 80.9999 231.6 81.1999 229.8 81.7999C228 82.3999 227 83.5999 227.2 85.5999C227.803 90.4416 228.004 95.325 227.8 100.2C227.813 100.756 227.95 101.303 228.2 101.8C234.4 110.8 236.8 121.4 239.8 131.6C242.2 139.4 246.6 143.6 254.6 144.2C255.88 144.302 257.151 144.503 258.4 144.8C260.044 145.064 261.57 145.815 262.783 146.956C263.995 148.097 264.837 149.575 265.2 151.2C266.6 155.4 265.8 156.4 261.6 156.4H248.6C246.917 156.485 245.267 155.911 244 154.8C241.976 153.092 239.677 151.739 237.2 150.8C234.462 149.789 232.093 147.977 230.4 145.6C228.057 142.327 225.376 139.31 222.4 136.6C216.8 130.8 210.8 125.2 205.6 119.2C201.641 115.112 199.358 109.688 199.2 104C199.2 102.2 198.8 101.4 196.8 102.2C196.201 102.58 195.509 102.787 194.8 102.8C189.2 102.8 186.4 106.2 184.4 111.2C182.6 115.4 180.2 119.4 178 123.6C176.753 126.229 176.071 129.091 176 132C176 136.8 177.2 138.4 181.6 140C184.4 141 187 142 188.4 144.8C190 148 189.6 148.8 186.2 149H172.6C171.816 149.078 171.027 148.907 170.346 148.512C169.664 148.117 169.123 147.518 168.8 146.8L165.2 140.8C164.139 139.234 163.459 137.442 163.216 135.566C162.973 133.691 163.173 131.784 163.8 130C164.666 126.527 164.734 122.903 164 119.4C163.496 116.96 163.539 114.439 164.127 112.018C164.715 109.597 165.833 107.337 167.4 105.4C168.6 104 168.6 103.4 166.6 103C158.422 101.263 150.493 98.5079 143 94.7999C142.947 94.7999 142.896 94.7788 142.859 94.7413C142.821 94.7038 142.8 94.6529 142.8 94.5999C136.4 92.1999 135.2 92.5999 133.4 99.1999C131.8 104.8 130.2 110.4 129 116.2C127.6 122.6 129.2 128.6 131.2 134.6C132 137 134.4 136.8 136.2 137.4C140.2 138.6 143.6 140.2 145.2 144.4C146.6 147.6 146.4 148 143 148C139.6 148 136.2 147.8 132.6 148C129.562 148.055 126.597 147.067 124.2 145.2C114.6 138.8 111.8 129 111 118.4C110.6 111.8 107 106.6 102.8 101.6C102 100.6 101.2 100.2 100 101C95.707 103.367 91.2249 105.374 86.6 107C76.9485 110.408 68.4793 116.517 62.2 124.6C59.8553 127.55 58.3368 131.07 57.8 134.8C57.2 138.4 58.2 140 61.8 141C65.4 142 67.2 144 67.6 147.8C67.8 149.4 67.2 150.2 65.6 150.2H49.4C48.8698 150.162 48.3566 149.997 47.9039 149.719C47.4512 149.44 47.0725 149.056 46.8 148.6C44.2877 145.489 42.9433 141.598 43 137.6C42.8951 130.69 43.4982 123.787 44.8 117C45.067 114.967 45.8259 113.03 47.0108 111.358C48.1958 109.685 49.7711 108.326 51.6 107.4C63.4 101.8 69.6 91.1999 75.2 80.1999C76.4 77.9999 75.4 77.5999 73.4 77.7999C67.8027 78.5769 62.4994 80.7809 58 84.1999C52.1084 88.4976 46.5585 93.2451 41.4 98.3999C35.8993 103.987 28.6054 107.457 20.8 108.2C6.20002 109 -0.599978 100.8 2.18973e-05 87.5999C0.134147 83.0991 1.83132 78.7854 4.80002 75.3999C5.83206 74.0619 7.23949 73.0619 8.84256 72.5275C10.4456 71.9931 12.1716 71.9487 13.8 72.3999C16.8 73.1999 17.6 74.7999 16.4 77.7999C15.8 78.9999 15 79.9999 14.4 81.1999C13.5372 82.4258 12.8631 83.7741 12.4 85.1999C10.2 91.1999 13.2 95.3999 19.4 95.9999C26 96.5999 31.4 93.7999 36.4 89.7999C42.4239 84.9764 47.8014 79.3972 52.4 73.1999C55.8385 68.6747 60.1682 64.9025 65.1217 62.1161C70.0751 59.3298 75.5472 57.5886 81.2 56.9999C85.8 56.3999 89.8 54.3999 94.2 53.1999C102.429 50.6911 110.998 49.4766 119.6 49.5999C123.584 49.7658 127.553 49.0131 131.2 47.3999C141 43.3999 151.2 43.3999 161.4 45.3999C169.4 46.9999 177.4 48.9999 185.2 50.9999C189.842 51.8648 194.615 51.7285 199.2 50.5999C207.977 48.375 216.956 47.0349 226 46.5999C231.925 46.3116 237.83 47.479 243.2 49.9999C247.2 51.7999 247.2 51.7999 246.2 55.5999Z" fill="black"/>
    </g>
</symbol><symbol id="gift" viewBox="0 0 80 84" preserveAspectRatio="none">
    <path d="M65.6571 36.7572H14.3908C12.5914 36.7572 11.1277 35.2941 11.1277 33.4953V23.7228C11.1277 21.9241 12.5914 20.4603 14.3908 20.4603H65.6564C67.4552 20.4603 68.9183 21.9241 68.9183 23.7228V33.4959C68.9189 35.2941 67.4558 36.7572 65.6571 36.7572ZM14.3908 22.9603C13.9771 22.9603 13.6277 23.3097 13.6277 23.7228V33.4959C13.6277 33.9159 13.9702 34.2578 14.3908 34.2578H65.6564C66.0764 34.2578 66.4183 33.9159 66.4183 33.4959V23.7228C66.4183 23.3091 66.0689 22.9603 65.6564 22.9603H14.3908Z" fill="white"/>
    <path d="M58.5075 70.236H21.5375C18.0737 70.236 15.2556 67.4185 15.2556 63.9541V35.5072C15.2556 34.8172 15.8156 34.2572 16.5056 34.2572C17.1956 34.2572 17.7556 34.8172 17.7556 35.5072V63.9541C17.7556 66.0397 19.4525 67.736 21.5375 67.736H58.5075C60.5919 67.736 62.2881 66.0397 62.2881 63.9541V35.5072C62.2881 34.8172 62.8481 34.2572 63.5381 34.2572C64.2281 34.2572 64.7881 34.8172 64.7881 35.5072V63.9541C64.7881 67.4185 61.9706 70.236 58.5075 70.236Z" fill="white"/>
    <path d="M40.0232 70.236C39.3332 70.236 38.7732 69.6766 38.7732 68.986V35.5072C38.7732 34.8172 39.3332 34.2572 40.0232 34.2572C40.7132 34.2572 41.2732 34.8172 41.2732 35.5072V68.9853C41.2732 69.6766 40.7138 70.236 40.0232 70.236Z" fill="white"/>
    <path d="M24.4218 22.956C20.5093 20.836 19.0493 15.9285 21.1674 12.0154C23.2843 8.10414 28.1911 6.64352 32.1055 8.75977C38.0686 11.9898 41.2886 21.001 41.4224 21.3829L39.0643 22.2123C39.0343 22.1273 36.0261 13.7266 30.9161 10.9585C28.213 9.49727 24.8268 10.506 23.3661 13.2054C21.9043 15.9073 22.9118 19.2948 25.6136 20.7579L24.4218 22.956Z" fill="white"/>
    <path d="M55.6218 22.956L54.4318 20.7572C55.7411 20.0478 56.6955 18.8722 57.1205 17.4466C57.5449 16.0203 57.388 14.5141 56.6786 13.206C55.9711 11.8966 54.7961 10.9428 53.3705 10.5185C51.9443 10.0941 50.4393 10.2503 49.1305 10.9585C44.0205 13.726 41.0124 22.1266 40.9824 22.2116L38.6243 21.3822C38.758 21.0003 41.9774 11.9891 47.9405 8.7597C49.8355 7.73345 52.0186 7.5072 54.0836 8.1222C56.1505 8.73658 57.8524 10.1197 58.878 12.0153C59.9049 13.9103 60.1318 16.0922 59.5168 18.1591C58.9011 20.2253 57.518 21.9285 55.6218 22.956Z" fill="white"/>
    <path d="M63.5381 53.4972H16.5056C15.8156 53.4972 15.2556 52.9372 15.2556 52.2472C15.2556 51.5572 15.8156 50.9972 16.5056 50.9972H63.5381C64.2281 50.9972 64.7881 51.5572 64.7881 52.2472C64.7881 52.9372 64.2287 53.4972 63.5381 53.4972Z" fill="white"/>
</symbol><symbol id="how-often" viewBox="0 0 80 80" preserveAspectRatio="none">
    <rect width="80" height="80" fill="#68B738"/>
    <path fill-rule="evenodd" clip-rule="evenodd" d="M46.6173 25.0761C46.991 24.9214 47.4211 25.0069 47.7071 25.2929C48.6156 26.2014 49.8038 28.1706 50.7659 31.2108C51.7373 34.2804 52.5 38.5081 52.5 44C52.5 44.5523 52.0523 45 51.5 45H48V54C48 54.5523 47.5523 55 47 55C46.4477 55 46 54.5523 46 54V26C46 25.5956 46.2436 25.2309 46.6173 25.0761ZM48 43H50.4912C50.4053 38.1836 49.7051 34.4875 48.8591 31.8142C48.5807 30.9346 48.2885 30.1715 48 29.519V43Z" fill="white"/>
    <path fill-rule="evenodd" clip-rule="evenodd" d="M34 25C34.5523 25 35 25.4477 35 26V54C35 54.5523 34.5523 55 34 55C33.4477 55 33 54.5523 33 54V26C33 25.4477 33.4477 25 34 25Z" fill="white"/>
    <path fill-rule="evenodd" clip-rule="evenodd" d="M29.5 25C30.0523 25 30.5 25.4477 30.5 26V31.5C30.5 32.0569 30.692 32.8152 31.2009 33.4166C31.68 33.9828 32.5145 34.5 33.9999 34.5C34.5522 34.5 34.9999 34.9477 34.9999 35.5C34.9999 36.0523 34.5522 36.5 33.9999 36.5C31.9855 36.5 30.57 35.7672 29.6741 34.7084C28.808 33.6848 28.5 32.4431 28.5 31.5V26C28.5 25.4477 28.9477 25 29.5 25Z" fill="white"/>
    <path fill-rule="evenodd" clip-rule="evenodd" d="M38.5 25C37.9477 25 37.5 25.4477 37.5 26V31.5C37.5 32.0569 37.308 32.8152 36.7991 33.4166C36.32 33.9828 35.4854 34.5 33.9999 34.5C33.4476 34.5 33.0001 34.9477 33.0001 35.5C33.0001 36.0523 33.4476 36.5 33.9999 36.5C36.0144 36.5 37.43 35.7672 38.3259 34.7084C39.192 33.6848 39.5 32.4431 39.5 31.5V26C39.5 25.4477 39.0523 25 38.5 25Z" fill="white"/>
</symbol><symbol id="htmlLogo" viewBox="0 0 27 34" preserveAspectRatio="none">
    <path d="M13.6426 0.0157537L13.5 0L0 1.40733V26.0129L13.5 34L27 26.0129V1.40733L13.6426 0.0157537ZM25.2344 25.0151L13.5 31.9573L1.76561 25.0151V14.9293L13.4507 21.8451L13.4701 23.0984L5.45351 18.3548L5.44295 19.5801L13.4894 24.3885L13.5088 25.675L5.46408 20.9174L5.45351 22.1427L13.5 26.9511L21.6239 22.1182V20.8929V16.909L25.2432 14.7595L25.2344 25.0151ZM25.2344 13.4519L22.0147 15.3319L20.5325 16.2071L13.4666 12.0201L13.456 13.2454L19.4957 16.818L19.4429 16.8495L19.3126 16.9247L18.4536 17.4166L13.4666 14.4689L13.456 15.6942L17.3921 18.0222L16.4591 18.6314L16.438 18.6436L13.4666 16.902L13.456 18.1273L15.4029 19.2615L13.4155 20.4483L1.7973 13.5762L13.4349 6.61831L25.2344 13.4519ZM25.2344 12.2266L13.4401 5.31075L1.76561 12.2196V2.9897L13.5 1.76442L25.2344 2.9897V12.2266Z" fill="currentColor"/>
</symbol><symbol id="insta" viewBox="0 0 23 23" preserveAspectRatio="none">
    <path d="M11.4775 0.0898438C13.3942 0.0898438 14.959 0.112305 16.1719 0.157227C17.2051 0.202148 18.126 0.381836 18.9346 0.696289C19.7132 0.995768 20.387 1.43001 20.9561 1.99902C21.5251 2.56803 21.9593 3.24186 22.2588 4.02051C22.5732 4.8291 22.7529 5.75 22.7979 6.7832C22.8428 7.99609 22.8652 9.56087 22.8652 11.4775C22.8652 13.3942 22.8428 14.959 22.7979 16.1719C22.7529 17.2051 22.5732 18.126 22.2588 18.9346C21.9593 19.7132 21.5251 20.387 20.9561 20.9561C20.387 21.5251 19.7132 21.9593 18.9346 22.2588C18.126 22.5732 17.2051 22.7529 16.1719 22.7978C14.959 22.8428 13.3942 22.8652 11.4775 22.8652C9.56087 22.8652 7.99609 22.8428 6.7832 22.7978C5.75 22.7529 4.8291 22.5732 4.02051 22.2588C3.24186 21.9593 2.56803 21.5251 1.99902 20.9561C1.43001 20.387 0.995768 19.7132 0.696289 18.9346C0.381836 18.126 0.202148 17.2051 0.157227 16.1719C0.112305 14.959 0.0898438 13.3942 0.0898438 11.4775C0.0898438 9.56087 0.112305 7.99609 0.157227 6.7832C0.202148 5.75 0.381836 4.8291 0.696289 4.02051C0.995768 3.24186 1.43001 2.56803 1.99902 1.99902C2.56803 1.43001 3.24186 0.995768 4.02051 0.696289C4.8291 0.381836 5.75 0.202148 6.7832 0.157227C7.99609 0.112305 9.56087 0.0898438 11.4775 0.0898438ZM11.4775 1.57227C9.486 1.57227 7.86133 1.59473 6.60352 1.63965C5.79492 1.6696 5.04622 1.81185 4.35742 2.06641C3.2793 2.51562 2.51562 3.2793 2.06641 4.35742C1.81185 5.04622 1.6696 5.79492 1.63965 6.60352C1.59473 7.86133 1.57227 9.486 1.57227 11.4775C1.57227 13.4691 1.59473 15.0937 1.63965 16.3516C1.6696 17.1602 1.81185 17.9089 2.06641 18.5977C2.51562 19.6758 3.2793 20.4395 4.35742 20.8887C5.04622 21.1432 5.79492 21.2855 6.60352 21.3154C7.86133 21.3603 9.486 21.3828 11.4775 21.3828C13.4691 21.3828 15.0938 21.3603 16.3516 21.3154C17.1602 21.2855 17.9089 21.1432 18.5977 20.8887C19.6758 20.4395 20.4395 19.6758 20.8887 18.5977C21.1432 17.9089 21.2855 17.1602 21.3154 16.3516C21.3604 15.0937 21.3828 13.4691 21.3828 11.4775C21.3828 9.486 21.3604 7.86133 21.3154 6.60352C21.2855 5.79492 21.1432 5.04622 20.8887 4.35742C20.4395 3.2793 19.6758 2.51562 18.5977 2.06641C17.9089 1.81185 17.1602 1.6696 16.3516 1.63965C15.0938 1.59473 13.4691 1.57227 11.4775 1.57227ZM11.4775 16.0371C12.7354 16.0371 13.8097 15.5916 14.7007 14.7007C15.5916 13.8097 16.0371 12.7354 16.0371 11.4775C16.0371 10.2197 15.5916 9.14534 14.7007 8.25439C13.8097 7.36344 12.7354 6.91797 11.4775 6.91797C10.2197 6.91797 9.14534 7.36344 8.25439 8.25439C7.36344 9.14534 6.91797 10.2197 6.91797 11.4775C6.91797 12.7354 7.36344 13.8097 8.25439 14.7007C9.14534 15.5916 10.2197 16.0371 11.4775 16.0371ZM11.4775 5.63769C13.0947 5.63769 14.4723 6.20671 15.6104 7.34473C16.7484 8.48275 17.3174 9.86035 17.3174 11.4775C17.3174 13.0947 16.7484 14.4723 15.6104 15.6104C14.4723 16.7484 13.0947 17.3174 11.4775 17.3174C9.86035 17.3174 8.48275 16.7484 7.34473 15.6104C6.20671 14.4723 5.6377 13.0947 5.6377 11.4775C5.6377 9.86035 6.20671 8.48275 7.34473 7.34473C8.48275 6.20671 9.86035 5.63769 11.4775 5.63769ZM18.9346 5.41309C18.9346 5.78743 18.7998 6.10563 18.5303 6.36768C18.2607 6.62972 17.9313 6.76074 17.542 6.76074C17.1676 6.76074 16.8494 6.62972 16.5874 6.36768C16.3254 6.10563 16.1943 5.78743 16.1943 5.41309C16.1943 5.02376 16.3254 4.69434 16.5874 4.4248C16.8494 4.15527 17.1676 4.02051 17.542 4.02051C17.9163 4.02051 18.242 4.15902 18.519 4.43603C18.7961 4.71305 18.9346 5.03874 18.9346 5.41309Z" fill="currentColor"/>
</symbol><symbol id="logo-desktop" viewBox="0 0 202 59" preserveAspectRatio="none">
    <g>
      <path d="M59.8801 24C58.1562 19.8695 55.3799 16.263 51.8279 13.5398C48.276 10.8166 44.0723 9.07178 39.6359 8.47931C35.1996 7.88684 30.6854 8.46738 26.5433 10.1631C22.4012 11.8588 18.7758 14.6104 16.0284 18.1437C13.281 21.677 11.5076 25.8687 10.8849 30.3009C10.2622 34.7332 10.812 39.2512 12.4794 43.4048C14.1468 47.5583 16.8737 51.2024 20.3882 53.9738C23.9027 56.7452 28.0822 58.5471 32.5101 59.2C31.9301 57.11 31.3401 54.8 30.8201 52.35C32.3328 53.3313 33.925 54.1843 35.5801 54.9C35.5801 54.9 35.7001 57.06 35.8601 59.47C37.6483 59.5008 39.4348 59.3433 41.1901 59C41.1447 58.7487 41.1447 58.4913 41.1901 58.24C41.4801 56.37 42.2801 53 42.4401 50.83C43.5933 49.7513 44.5717 48.4996 45.3401 47.12L45.2801 47.56C44.7301 51.82 43.5801 56.37 42.8801 57.63C42.6534 58.0471 42.3745 58.4335 42.0501 58.78C45.6699 57.9308 49.0617 56.3046 51.9903 54.014C54.919 51.7233 57.3145 48.8232 59.0106 45.5146C60.7068 42.2059 61.6631 38.568 61.8132 34.853C61.9634 31.1379 61.3037 27.4347 59.8801 24ZM58.4101 27.79C57.9701 28.22 57.0601 28.51 56.9101 27.21C56.7601 25.91 56.7201 25 56.7201 25C56.7201 25 54.7901 21.57 54.0701 21.53C53.3501 21.49 48.2401 25 46.8901 26.53C45.7201 27.82 45.4901 27.73 45.4901 30C45.4901 31.71 45.7101 38.17 45.5901 43.11L37.4401 45.28C34.8784 46.0152 32.2733 46.5896 29.6401 47L28.6401 41.17H28.5001L25.9301 28C25.9301 28 22.1201 26.56 20.7201 26.17C20.0627 25.8824 19.3368 25.7889 18.628 25.9005C17.9192 26.0122 17.2572 26.3243 16.7201 26.8C16.1721 27.2798 15.7339 27.872 15.4354 28.5364C15.1368 29.2008 14.985 29.9217 14.9901 30.65C15.2014 31.1148 15.3624 31.6009 15.4701 32.1C15.5201 32.58 14.2701 32.53 13.4701 32.53C12.6701 32.53 12.5501 31.09 13.1801 29.4C13.6716 28.1005 14.2808 26.8486 15.0001 25.66C15.5411 24.5982 16.2389 23.624 17.0701 22.77C17.0701 22.77 17.2101 22.43 18.3201 22.53C19.4301 22.63 25.6001 22.96 25.6001 22.96L25.6501 20.69C32.3564 19.764 39.1202 19.3162 45.8901 19.35C45.8901 19.96 45.8901 20.57 45.8901 21.18C48.4543 20.0098 51.2155 19.3314 54.0301 19.18C54.1807 19.1762 54.3298 19.2098 54.4642 19.2779C54.5986 19.346 54.714 19.4463 54.8001 19.57C55.1401 20 57.2101 22.57 57.4501 22.94C58.1223 23.9007 58.7335 24.9027 59.2801 25.94C59.0927 26.5968 58.7988 27.2184 58.4101 27.78V27.79Z" fill="#FDC305"/>
      <path d="M56.46 21.67C56.93 22.27 57.34 22.8 57.46 22.96C58.1322 23.9207 58.7434 24.9227 59.29 25.96C59.0997 26.5953 58.8094 27.1961 58.43 27.74C57.99 28.17 57.08 28.46 56.93 27.16C56.78 25.86 56.72 25 56.72 25C56.72 25 54.79 21.57 54.07 21.53C53.35 21.49 48.24 25 46.89 26.53C45.72 27.82 45.49 27.73 45.49 30C45.49 31.5 45.66 36.65 45.62 41.23C47.43 41.43 50.09 41.93 50.89 43.11C50.89 43.11 50.6 35.93 58.7 39.69C58.7 39.69 58.98 29.9 70.16 32.41C66.3594 27.9478 61.7004 24.2955 56.46 21.67Z" fill="#F06351"/>
      <path d="M45.93 19.35C45.9707 13.8087 45.5021 8.27548 44.53 2.82C44.53 2.82 44.38 1.52 43.66 2.58C43.0659 3.84722 42.6616 5.195 42.46 6.58C38.1852 6.30571 33.8943 6.41951 29.64 6.92C28.82 4.17 27.42 2.92 26.75 3.25C26.08 3.58 26 6.53 26 6.53L25.67 20.69C32.383 19.7631 39.1535 19.3153 45.93 19.35Z" fill="#F06351"/>
      <path d="M45.35 47.12C45.48 46.05 45.55 44.63 45.59 43.06L37.44 45.23C34.8795 45.982 32.2744 46.5732 29.64 47L30.75 52C30.75 52.11 30.75 52.22 30.82 52.33C32.3328 53.3113 33.925 54.1643 35.58 54.88C37.9987 53.7238 40.3023 52.341 42.46 50.75V50.81C43.6081 49.7366 44.583 48.4918 45.35 47.12Z" fill="#E55645"/>
      <path d="M32 16.22C31.95 16.12 33 16.9 33.41 17.14C33.82 17.38 34.02 17.56 34.02 17.73C34.02 17.9 33.76 18.07 33.4 18.07C33.04 18.07 32.48 17.95 32.4 17.81C32.32 17.67 33 17.81 33.34 17.81H33.63C33.0144 17.3596 32.4656 16.8243 32 16.22Z" fill="black"/>
      <path d="M39.5 16.33C39.5 16.33 38.5 17.61 38.41 17.67C38.32 17.73 38.24 18.01 38.6 17.96C39.0133 17.8983 39.4212 17.8047 39.82 17.68C39.93 17.62 39.89 17.48 39.7 17.5C39.51 17.52 39.02 17.55 38.7 17.61L39.55 16.34C39.55 16.34 39.58 16.22 39.5 16.33Z" fill="black"/>
      <path d="M36.36 22.44C36.8236 22.2358 37.2067 21.8843 37.45 21.44C37.73 20.78 37.45 20.53 37.01 20.44C36.4047 20.3296 35.78 20.4509 35.26 20.78C34.87 21.15 34.92 21.51 35.26 21.78C35.5978 22.0449 35.9673 22.2666 36.36 22.44Z" fill="black"/>
      <path d="M36 23.7C35.8852 23.9268 35.7292 24.1302 35.54 24.3C35.2552 24.5291 34.9051 24.6622 34.54 24.68C33.9894 24.734 33.4389 24.5768 33 24.24C32.7984 24.1221 32.619 23.9698 32.47 23.79C32.3699 23.6811 32.247 23.5957 32.11 23.54C32.11 23.54 32.86 27.65 34.68 28.31C36.5 28.97 36.84 27.55 36.89 27.17C36.9509 26.0319 36.665 24.9021 36.07 23.93C36.07 23.63 36.05 23.83 36 23.7Z" fill="#F06351"/>
      <path d="M34.3001 24.84C33.8321 24.7727 33.3826 24.6113 32.9787 24.3656C32.5748 24.1198 32.2249 23.7947 31.9501 23.41C31.9255 23.3825 31.9119 23.3469 31.9119 23.31C31.9119 23.2731 31.9255 23.2375 31.9501 23.21C31.9631 23.1967 31.9787 23.1861 31.9958 23.1789C32.013 23.1717 32.0314 23.168 32.0501 23.168C32.0687 23.168 32.0871 23.1717 32.1043 23.1789C32.1215 23.1861 32.137 23.1967 32.1501 23.21C32.3975 23.5572 32.7115 23.8517 33.0737 24.0766C33.4359 24.3015 33.8391 24.4522 34.2601 24.52C34.593 24.495 34.9153 24.3913 35.2005 24.2174C35.4856 24.0436 35.7253 23.8046 35.9001 23.52L36.0401 23.33L36.1401 23.55C36.1401 23.55 36.5201 24.31 37.1401 24.35C37.7601 24.39 38.2001 23.93 38.7701 23.06C38.7913 23.0282 38.8243 23.0061 38.8618 22.9986C38.8993 22.9911 38.9382 22.9988 38.9701 23.02C39.0019 23.0412 39.024 23.0742 39.0315 23.1117C39.039 23.1492 39.0313 23.1882 39.0101 23.22C38.3434 24.2 37.7134 24.67 37.1201 24.63C36.8907 24.5996 36.6711 24.5183 36.4773 24.392C36.2835 24.2656 36.1204 24.0975 36.0001 23.9C35.8044 24.1732 35.5503 24.3994 35.2562 24.562C34.9621 24.7246 34.6355 24.8196 34.3001 24.84Z" fill="black"/>
      <path d="M36.26 38.3C38.3311 38.3 40.01 36.6211 40.01 34.55C40.01 32.4789 38.3311 30.8 36.26 30.8C34.1889 30.8 32.51 32.4789 32.51 34.55C32.51 36.6211 34.1889 38.3 36.26 38.3Z" fill="#FDC305"/>
      <path d="M41.23 31.5L38.1 32.81L39.25 27.18L31.75 36.94L34.88 35.63L33.73 41.27L41.23 31.5ZM33.84 35.33L38 29.92L37.19 33.92L39.19 33.1L35 38.52L35.81 34.52L33.84 35.33Z" fill="#111111"/>
      <path d="M32.4399 33.86C33.0585 33.86 33.5599 33.3586 33.5599 32.74C33.5599 32.1214 33.0585 31.62 32.4399 31.62C31.8214 31.62 31.3199 32.1214 31.3199 32.74C31.3199 33.3586 31.8214 33.86 32.4399 33.86Z" fill="#111111"/>
      <path d="M38.96 37.92C39.3963 37.92 39.75 37.5663 39.75 37.13C39.75 36.6937 39.3963 36.34 38.96 36.34C38.5237 36.34 38.17 36.6937 38.17 37.13C38.17 37.5663 38.5237 37.92 38.96 37.92Z" fill="#111111"/>
      <path d="M39.9199 35.75C40.1132 35.75 40.2699 35.5933 40.2699 35.4C40.2699 35.2067 40.1132 35.05 39.9199 35.05C39.7266 35.05 39.5699 35.2067 39.5699 35.4C39.5699 35.5933 39.7266 35.75 39.9199 35.75Z" fill="#111111"/>
      <path d="M45.88 21.16C44.0749 22.7873 42.3748 24.5274 40.79 26.37C39.2114 28.1993 37.43 29.8432 35.48 31.27C35.26 30.74 33.85 29.75 33.85 29.75C33.85 29.75 30.71 27.6 28.65 25.91C27.5364 24.9825 26.4873 23.9802 25.51 22.91L23.51 22.8C26.397 27.0172 30.6266 30.1329 35.51 31.64C36.37 31.5 38.79 29.77 40.6 28.36C42.7414 26.5389 44.7467 24.5636 46.6 22.45C47.0981 21.858 47.4844 21.1803 47.74 20.45C46.6 20.83 45.88 21.16 45.88 21.16Z" fill="#F06351"/>
      <path d="M65.22 3.5L56.76 12.94L55.54 10.95L63.69 0L65.22 3.5Z" fill="#FDC305"/>
      <path d="M62.65 17.26L68.19 13.15L67.41 9.41L62.01 14.22L62.65 17.26Z" fill="#FDC305"/>
      <path d="M59.92 49.37L66.05 52.55L69.06 50.21L62.37 47.46L59.92 49.37Z" fill="#FDC305"/>
      <path d="M1.94995 5.97L5.01995 2.61L14.31 11.61L13.09 13.89L1.94995 5.97Z" fill="#FDC305"/>
      <path d="M7.38003 16.28L2.68003 13.15L0.280029 17.02L5.43003 19.42L7.38003 16.28Z" fill="#FDC305"/>
      <path d="M13.91 52.55L9.35999 55.9L12.16 59.48L16.18 55.46L13.91 52.55Z" fill="#FDC305"/>
      <path d="M25.93 28C25.93 28 22.12 26.56 20.72 26.17C20.0626 25.8824 19.3367 25.7889 18.6279 25.9005C17.9192 26.0122 17.2571 26.3243 16.72 26.8C16.172 27.2798 15.7338 27.8721 15.4353 28.5364C15.1368 29.2008 14.9849 29.9217 14.99 30.65C15.2014 31.1148 15.3623 31.6009 15.47 32.1C15.52 32.58 14.27 32.53 13.47 32.53C12.67 32.53 12.55 31.09 13.18 29.4C13.6715 28.1005 14.2807 26.8486 15 25.66C9.55 28.5 0 35.06 0 35.06C2.73169 34.8953 5.47264 34.9756 8.19 35.3C13.44 35.83 13.19 39.97 13.19 39.97C15.0366 39.4609 16.9184 39.0899 18.82 38.86C20.94 38.72 21.09 40.98 21.09 40.98L21.62 44.84C22.4248 43.9693 23.3123 43.1789 24.27 42.48C25.5045 41.4918 27.0763 41.0253 28.65 41.18L25.93 28Z" fill="#F06351"/>
      <path d="M85.6599 42C84.6298 40.4735 84.1372 38.6475 84.2599 36.81V29.31C84.13 27.459 84.6151 25.6169 85.6399 24.07C86.5666 22.8767 88.1499 22.2833 90.3899 22.29C92.6299 22.2967 94.1466 22.82 94.9399 23.86C95.9073 25.1488 96.3793 26.7423 96.2699 28.35V30.11H92.1299V28.2C92.1244 27.6974 92.0809 27.196 91.9999 26.7C91.9499 26.3409 91.785 26.0077 91.5299 25.75C91.3725 25.615 91.1897 25.5127 90.9922 25.4492C90.7947 25.3856 90.5866 25.3621 90.3799 25.38C90.0831 25.3357 89.7799 25.3839 89.5115 25.5181C89.2431 25.6523 89.0226 25.866 88.8799 26.13C88.617 26.8323 88.5013 27.5811 88.5399 28.33V37.85C88.4943 38.6038 88.628 39.3578 88.9299 40.05C89.0742 40.2997 89.2883 40.5019 89.5459 40.6315C89.8035 40.7612 90.0934 40.8128 90.3799 40.78C90.6615 40.8198 90.9484 40.7697 91.1998 40.6368C91.4512 40.5039 91.6542 40.2951 91.7799 40.04C92.0218 39.3364 92.127 38.5931 92.0899 37.85V35.85H96.2299V37.58C96.3518 39.2114 95.9183 40.8361 94.9999 42.19C94.1199 43.29 92.5999 43.83 90.4399 43.83C88.2799 43.83 86.5899 43.23 85.6599 42Z" fill="#111111"/>
      <path d="M101.91 22.58H106.65L110.65 43.58H106.71L106 38.94H102.68L101.88 43.55H97.88L101.91 22.58ZM105.56 36.3L104.3 27.86L103.05 36.3H105.56Z" fill="#111111"/>
      <path d="M113.72 25.74H110.48V22.58H121.2V25.74H118V43.55H113.71L113.72 25.74Z" fill="#111111"/>
      <path d="M129.61 22.58H137.74V24.76H132.54V31.69H136.76V33.76H132.54V41.45H137.79V43.55H129.61V22.58Z" fill="#444444"/>
      <path d="M140.15 22.58H142.15L148.15 36.51V22.58H150.59V43.58H148.72L142.72 29.26V43.55H140.24L140.15 22.58Z" fill="#444444"/>
      <path d="M153.82 22.58H161.94V24.76H156.74V31.69H161V33.76H156.78V41.45H162V43.55H153.82V22.58Z" fill="#444444"/>
      <path d="M164.35 22.58H168.57C170.233 22.4462 171.889 22.9107 173.24 23.89C174.24 24.76 174.73 26.18 174.73 28.15C174.73 30.8167 173.867 32.4467 172.14 33.04L175.14 43.55H172.3L169.55 33.71H167.28V43.55H164.35V22.58ZM168.35 31.58C169.313 31.6732 170.277 31.402 171.05 30.82C171.364 30.4481 171.599 30.0158 171.74 29.5498C171.881 29.0837 171.925 28.5938 171.87 28.11C171.89 27.4316 171.792 26.7548 171.58 26.11C171.494 25.8722 171.361 25.6542 171.189 25.4687C171.018 25.2831 170.81 25.134 170.58 25.03C169.931 24.7637 169.231 24.6441 168.53 24.68H167.24V31.62L168.35 31.58Z" fill="#444444"/>
      <path d="M178.67 42C177.714 40.3866 177.271 38.5208 177.4 36.65V29.65C177.366 28.2992 177.534 26.9508 177.9 25.65C178.189 24.6721 178.803 23.8219 179.64 23.24C180.651 22.6307 181.821 22.3382 183 22.4C183.762 22.3275 184.532 22.4224 185.254 22.678C185.976 22.9336 186.633 23.3439 187.18 23.88C188.139 25.224 188.593 26.864 188.46 28.51V29.29H185.71V28.64C185.729 27.8626 185.668 27.0852 185.53 26.32C185.439 25.8296 185.168 25.3909 184.77 25.09C184.251 24.7836 183.652 24.6408 183.05 24.68C182.397 24.6241 181.748 24.825 181.24 25.24C180.825 25.6335 180.554 26.1545 180.47 26.72C180.343 27.5437 180.286 28.3767 180.3 29.21V37C180.221 38.1837 180.423 39.3695 180.89 40.46C181.161 40.7954 181.506 41.0643 181.897 41.2461C182.288 41.428 182.716 41.5181 183.147 41.5094C183.578 41.5007 184.002 41.3935 184.386 41.196C184.769 40.9986 185.102 40.716 185.36 40.37C185.842 39.2166 186.051 37.9674 185.97 36.72V35.24H183.31V33.17H188.61V43.55H186.8L186.51 41.14C186.281 41.9407 185.788 42.6403 185.11 43.125C184.433 43.6098 183.612 43.8512 182.78 43.81C181.998 43.879 181.211 43.7492 180.493 43.4328C179.774 43.1163 179.147 42.6235 178.67 42Z" fill="#444444"/>
      <path d="M194.69 36.15L190.16 22.58H192.88L196.09 32.7L199.25 22.58H202L197.5 36.15V43.55H194.7L194.69 36.15Z" fill="#444444"/>
    </g>
</symbol><symbol id="logo-mobile" viewBox="0 0 191 38" preserveAspectRatio="none">
    <g>
      <path d="M6.07 20.72V18.46C12.7536 17.5423 19.4937 17.0979 26.24 17.13C26.24 17.73 26.24 18.34 26.18 18.95C28.0976 18.099 30.1128 17.4877 32.18 17.13C30.8625 13.722 28.4618 10.8412 25.3471 8.93086C22.2324 7.02051 18.5764 6.1864 14.9414 6.55683C11.3064 6.92726 7.89379 8.48172 5.22852 10.9811C2.56325 13.4804 0.792969 16.7863 0.190001 20.39L6.07 20.72Z" fill="#FDC305"/>
      <path d="M27.24 24.23C26.08 25.51 25.85 25.43 25.85 27.68C25.85 28.59 25.85 32.58 25.85 36.86C28.1425 35.346 30.0245 33.2879 31.328 30.8694C32.6315 28.4509 33.3158 25.7474 33.32 23C33.3068 21.9591 33.1997 20.9216 33 19.9C30.9282 21.1295 28.9967 22.5814 27.24 24.23Z" fill="#FDC305"/>
      <path d="M6.36 25.72C6.36 25.72 2.57 24.28 1.17 23.89C0.787067 23.7693 0.396097 23.6757 0 23.61C0.108395 26.496 0.965588 29.3041 2.48739 31.7586C4.00919 34.2131 6.14326 36.2296 8.68 37.61L6.36 25.72Z" fill="#FDC305"/>
      <path d="M26.29 17.12C26.3307 11.5986 25.862 6.08529 24.89 0.650004C24.89 0.650004 24.75 -0.639996 24 0.410004C23.4109 1.65814 23.0067 2.98539 22.8 4.35C18.5418 4.07577 14.2675 4.18958 10.03 4.69C9.24 2 7.85 0.750004 7.18 1C6.51 1.25 6.46 4.31 6.46 4.31L6.13 18.41C12.8113 17.506 19.548 17.0749 26.29 17.12Z" fill="#F06351"/>
      <path d="M12.41 14C12.41 13.91 13.41 14.68 13.82 14.92C14.23 15.16 14.43 15.34 14.43 15.51C14.43 15.68 14.16 15.85 13.8 15.85C13.44 15.85 12.89 15.73 12.8 15.58H13.74H14.03C13.4207 15.1294 12.8757 14.5978 12.41 14Z" fill="black"/>
      <path d="M19.89 14.11L18.8 15.44C18.8 15.5 18.63 15.79 18.98 15.74C19.3942 15.6783 19.8023 15.5812 20.2 15.45C20.31 15.45 20.27 15.26 20.09 15.28C19.91 15.3 19.4 15.33 19.09 15.39L19.93 14.13C19.93 14.13 20 14 19.89 14.11Z" fill="black"/>
      <path d="M16.75 20.2C17.2135 19.9958 17.5967 19.6443 17.84 19.2C18.12 18.55 17.84 18.29 17.4 18.2C16.7979 18.0902 16.1765 18.2116 15.66 18.54C15.27 18.9 15.32 19.26 15.61 19.54C15.9613 19.8062 16.3442 20.0279 16.75 20.2Z" fill="black"/>
      <path d="M16.35 21.45C16.2379 21.6785 16.0816 21.8825 15.89 22.05C15.6052 22.2791 15.2551 22.4122 14.89 22.43C14.3638 22.472 13.8406 22.3189 13.42 22C13.2222 21.8808 13.0436 21.7324 12.89 21.56C12.7895 21.4491 12.6669 21.3605 12.53 21.3C12.53 21.3 13.28 25.4 15.1 26.05C16.92 26.7 17.24 25.3 17.3 24.92C17.3601 23.7851 17.0742 22.6588 16.48 21.69C16.46 21.38 16.45 21.58 16.35 21.45Z" fill="#F06351"/>
      <path d="M14.71 22.59C14.2453 22.5247 13.7989 22.3651 13.3982 22.1209C12.9975 21.8767 12.651 21.5531 12.38 21.17C12.3667 21.157 12.3561 21.1414 12.3489 21.1242C12.3417 21.1071 12.338 21.0886 12.338 21.07C12.338 21.0514 12.3417 21.0329 12.3489 21.0158C12.3561 20.9986 12.3667 20.983 12.38 20.97C12.393 20.9567 12.4086 20.9461 12.4258 20.9389C12.4429 20.9317 12.4614 20.928 12.48 20.928C12.4986 20.928 12.5171 20.9317 12.5342 20.9389C12.5514 20.9461 12.567 20.9567 12.58 20.97C13.0848 21.6642 13.843 22.1313 14.69 22.27C15.0217 22.245 15.3426 22.1413 15.6261 21.9674C15.9096 21.7934 16.1475 21.5544 16.32 21.27L16.46 21.08L16.56 21.29C16.56 21.29 16.93 22.05 17.56 22.09C18.19 22.13 18.61 21.68 19.17 20.81C19.183 20.7967 19.1986 20.7861 19.2158 20.7789C19.2329 20.7717 19.2514 20.768 19.27 20.768C19.2886 20.768 19.3071 20.7717 19.3242 20.7789C19.3414 20.7861 19.357 20.7967 19.37 20.81C19.4023 20.8306 19.4255 20.8629 19.4348 20.9C19.4441 20.9372 19.4388 20.9766 19.42 21.01C18.78 22.01 18.15 22.45 17.54 22.41C17.308 22.3763 17.0867 22.2903 16.8927 22.1587C16.6987 22.0271 16.5371 21.8531 16.42 21.65C16.2233 21.9245 15.9676 22.1514 15.6717 22.3141C15.3758 22.4767 15.0471 22.571 14.71 22.59Z" fill="black"/>
      <path d="M26.24 18.92C24.4445 20.5437 22.7512 22.277 21.17 24.11C19.5986 25.9361 17.8238 27.5768 15.88 29C15.66 28.47 14.26 27.49 14.26 27.49C14.26 27.49 11.13 25.35 9.08 23.67C7.97414 22.7373 6.9287 21.7353 5.95 20.67L3.95 20.56C6.84018 24.7655 11.0702 27.8676 15.95 29.36C16.81 29.22 19.22 27.5 21.02 26.1C23.1389 24.2819 25.124 22.3134 26.96 20.21C27.4625 19.621 27.8493 18.9425 28.1 18.21C27 18.6 26.24 18.92 26.24 18.92Z" fill="#F06351"/>
    </g>
    <g>
      <path d="M90.2645 28.5385C89.3696 27.2762 88.9253 25.7627 89 24.2308V17.8462C88.8916 16.2977 89.3081 14.7575 90.1855 13.4615C91.0548 12.4615 92.3983 12 94.374 12C96.3498 12 97.6143 12.4615 98.4045 13.3077C99.2626 14.3794 99.6846 15.7214 99.59 17.0769V18.6154H95.7175V16.8462C95.7488 16.3229 95.6681 15.799 95.4804 15.3077C95.3802 15.1094 95.2212 14.9448 95.024 14.8351C94.8269 14.7255 94.6005 14.6757 94.374 14.6923C93.8208 14.6923 93.4257 14.8462 93.2676 15.2308C93.0888 15.7773 93.0086 16.3499 93.0305 16.9231V25.1538C92.9888 25.71 93.0978 26.267 93.3466 26.7692C93.5047 27.1538 93.8999 27.3077 94.4531 27.3077C95.0063 27.3077 95.3224 27.1538 95.4804 26.7692C95.6601 26.2494 95.7405 25.7019 95.7175 25.1538V23.3077H99.59V24.8462C99.6704 26.2238 99.2508 27.5852 98.4045 28.6923C97.6143 29.6154 96.2707 30.0769 94.374 30.0769C92.4773 30 91.0548 29.5385 90.2645 28.5385Z" fill="#111111"/>
      <path d="M104.253 12.2308H108.757L112.077 29.7692H108.441L107.809 26.0769H105.201L104.569 29.7692H100.854L104.253 12.2308ZM107.493 23.7692L106.545 16.9231L105.596 23.7692H107.493Z" fill="#111111"/>
      <path d="M114.843 15.1539H112.156V12.2308H121.56V15.0769H118.873V29.7692H114.843V15.1539Z" fill="#111111"/>
      <path d="M128.752 12.2308H135.707V14.0769H131.202V19.8462H134.837V21.6154H131.202V28.0769H135.707V29.8462H128.673V12.2308H128.752Z" fill="#111111"/>
      <path d="M137.761 12.2308H139.5L144.637 23.8462V12.2308H146.692V29.7692H145.111L139.895 17.7692V29.7692H137.761V12.2308Z" fill="#111111"/>
      <path d="M149.063 12.2308H156.017V14.0769H151.513V19.8462H155.148V21.6154H151.513V28.0769H156.017V29.8462H149.063V12.2308Z" fill="#111111"/>
      <path d="M158.072 12.2308H161.707C163.137 12.1346 164.559 12.5144 165.738 13.3077C166.607 14 167.002 15.2308 167.002 16.8462C167.002 19.0769 166.291 20.4615 164.79 20.9231L167.318 29.6923H164.869L162.498 21.4615H160.522V29.6923H157.993V12.2308H158.072ZM161.549 19.7692C162.364 19.8346 163.176 19.6165 163.841 19.1539C164.315 18.7692 164.552 18 164.552 16.8462C164.574 16.273 164.494 15.7004 164.315 15.1539C164.137 14.7617 163.832 14.4373 163.446 14.2308C162.902 13.9893 162.304 13.8836 161.707 13.9231H160.601V19.6923H161.549V19.7692Z" fill="#111111"/>
      <path d="M170.164 28.4615C169.342 27.1166 168.956 25.5617 169.057 24V18.1538C169.038 17.0391 169.17 15.9268 169.452 14.8462C169.717 14.0386 170.244 13.3367 170.954 12.8462C171.836 12.3378 172.854 12.0967 173.878 12.1538C175.538 12.1538 176.723 12.5385 177.434 13.3846C178.252 14.5019 178.644 15.8624 178.541 17.2308V17.8462H176.17V17.3077C176.173 16.6635 176.12 16.0201 176.012 15.3846C175.945 14.983 175.718 14.6235 175.379 14.3846C174.935 14.1008 174.408 13.9658 173.878 14C173.311 13.9647 172.75 14.1284 172.297 14.4615C172.111 14.614 171.959 14.8018 171.851 15.0134C171.742 15.2251 171.679 15.4561 171.665 15.6923C171.561 16.38 171.508 17.0741 171.507 17.7692V24.3077C171.449 25.3038 171.61 26.3006 171.981 27.2308C172.297 27.8462 172.93 28.0769 173.878 28.0769C174.252 28.1223 174.632 28.0589 174.97 27.8947C175.307 27.7304 175.587 27.4727 175.775 27.1538C176.192 26.1811 176.381 25.1299 176.328 24.0769V22.8462H174.036V21.0769H178.62V29.7692H177.039L176.802 27.7692C176.595 28.4395 176.163 29.0231 175.576 29.4273C174.989 29.8315 174.28 30.0331 173.562 30C172.909 30.0374 172.256 29.9164 171.663 29.6479C171.07 29.3794 170.555 28.9717 170.164 28.4615Z" fill="#111111"/>
      <path d="M183.678 23.6154L179.805 12.3077H182.176L184.942 20.7692L187.629 12.3077H190L186.128 23.6154V29.7692H183.757V23.6154H183.678Z" fill="#111111"/>
    </g>
</symbol><symbol id="logo-tablet" viewBox="0 0 174 52" preserveAspectRatio="none">
    <g>
      <path d="M51.5819 20.854C50.0969 17.265 47.7053 14.1312 44.6456 11.7649C41.5858 9.39869 37.9646 7.88262 34.143 7.36781C30.3214 6.85301 26.4328 7.35745 22.8646 8.83086C19.2965 10.3043 16.1735 12.6952 13.8068 15.7654C11.4402 18.8355 9.9125 22.4777 9.37609 26.329C8.83968 30.1802 9.31325 34.106 10.7496 37.7151C12.186 41.3242 14.535 44.4906 17.5625 46.8987C20.59 49.3068 24.1903 50.8726 28.0046 51.4399C27.505 49.6238 26.9967 47.6166 26.5488 45.4878C27.8519 46.3405 29.2235 47.0816 30.6492 47.7035C30.6492 47.7035 30.7526 49.5804 30.8904 51.6745C32.4308 51.7013 33.9698 51.5644 35.4818 51.2661C35.4427 51.0477 35.4427 50.8241 35.4818 50.6057C35.7316 48.9808 36.4208 46.0526 36.5586 44.167C37.552 43.2297 38.3948 42.1421 39.0567 40.9434L39.005 41.3257C38.5312 45.0273 37.5406 48.9808 36.9376 50.0757C36.7424 50.4381 36.5021 50.7739 36.2226 51.0749C39.3408 50.3371 42.2626 48.924 44.7855 46.9336C47.3083 44.9433 49.3718 42.4233 50.8329 39.5484C52.2941 36.6735 53.1179 33.5124 53.2472 30.2843C53.3765 27.0563 52.8083 23.8385 51.5819 20.854ZM50.3156 24.1472C49.9366 24.5208 49.1527 24.7728 49.0235 23.6432C48.8942 22.5136 48.8598 21.7229 48.8598 21.7229C48.8598 21.7229 47.1972 18.7425 46.577 18.7078C45.9568 18.673 41.5549 21.7229 40.3919 23.0524C39.3841 24.1733 39.1859 24.0951 39.1859 26.0675C39.1859 27.5534 39.3755 33.1666 39.2721 37.459L32.2514 39.3446C30.0448 39.9834 27.8007 40.4825 25.5323 40.8391L24.6709 35.7733H24.5503L22.3364 24.3297C22.3364 24.3297 19.0543 23.0784 17.8483 22.7396C17.2821 22.4897 16.6568 22.4084 16.0462 22.5054C15.4356 22.6024 14.8653 22.8736 14.4026 23.287C13.9306 23.7039 13.5531 24.2185 13.296 24.7958C13.0388 25.373 12.908 25.9994 12.9124 26.6323C13.0945 27.0362 13.2331 27.4585 13.3258 27.8922C13.3689 28.3093 12.2921 28.2659 11.603 28.2659C10.9138 28.2659 10.8105 27.0146 11.3532 25.5462C11.7766 24.417 12.3013 23.3292 12.921 22.2964C13.387 21.3738 13.9881 20.5273 14.7041 19.7852C14.7041 19.7852 14.8247 19.4898 15.7809 19.5767C16.7371 19.6636 22.0521 19.9503 22.0521 19.9503L22.0952 17.9779C27.8722 17.1733 33.6987 16.7842 39.5305 16.8135C39.5305 17.3436 39.5305 17.8736 39.5305 18.4037C41.7394 17.3869 44.118 16.7974 46.5425 16.6658C46.6723 16.6625 46.8008 16.6917 46.9166 16.7509C47.0323 16.81 47.1317 16.8973 47.2058 17.0047C47.4987 17.3783 49.2819 19.6115 49.4886 19.933C50.0677 20.7677 50.5942 21.6383 51.065 22.5397C50.9037 23.1104 50.6505 23.6505 50.3156 24.1385V24.1472Z" fill="#FDC305"/>
      <path d="M48.6363 18.8294C49.0411 19.3508 49.3943 19.8113 49.4977 19.9503C50.0768 20.7851 50.6033 21.6557 51.0741 22.5571C50.9102 23.1091 50.6601 23.6312 50.3333 24.1038C49.9543 24.4774 49.1704 24.7294 49.0411 23.5998C48.9119 22.4702 48.8602 21.7229 48.8602 21.7229C48.8602 21.7229 47.1977 18.7425 46.5775 18.7078C45.9572 18.673 41.5553 21.7229 40.3924 23.0524C39.3845 24.1733 39.1864 24.0951 39.1864 26.0675C39.1864 27.3709 39.3328 31.8458 39.2984 35.8254C40.8576 35.9992 43.149 36.4337 43.8381 37.459C43.8381 37.459 43.5883 31.2202 50.5659 34.4873C50.5659 34.4873 50.8071 25.9806 60.4378 28.1616C57.1639 24.2844 53.1505 21.1107 48.6363 18.8294Z" fill="#F06351"/>
      <path d="M39.5654 16.8135C39.6005 11.9987 39.1968 7.1907 38.3594 2.45035C38.3594 2.45035 38.2302 1.32075 37.61 2.24181C37.0982 3.34291 36.7499 4.51402 36.5763 5.71747C32.8938 5.47914 29.1975 5.57802 25.5328 6.0129C24.8264 3.62338 23.6204 2.53724 23.0432 2.82398C22.4661 3.11072 22.3972 5.67403 22.3972 5.67403L22.1129 17.9779C27.8956 17.1725 33.7279 16.7834 39.5654 16.8135Z" fill="#F06351"/>
      <path d="M39.0651 40.9434C39.1771 40.0136 39.2374 38.7798 39.2719 37.4156L32.2516 39.3011C30.0459 39.9546 27.8019 40.4682 25.5327 40.8391L26.4889 45.1837C26.4889 45.2793 26.4889 45.3748 26.5492 45.4704C27.8522 46.3231 29.2238 47.0642 30.6494 47.6862C32.7328 46.6815 34.7171 45.4799 36.5757 44.0975V44.1497C37.5647 43.217 38.4044 42.1354 39.0651 40.9434Z" fill="#E55645"/>
      <path d="M27.5657 14.0938C27.5227 14.0069 28.4271 14.6847 28.7803 14.8932C29.1334 15.1018 29.3057 15.2582 29.3057 15.4059C29.3057 15.5536 29.0818 15.7013 28.7717 15.7013C28.4616 15.7013 27.9792 15.5971 27.9103 15.4754C27.8414 15.3538 28.4271 15.4754 28.72 15.4754H28.9698C28.4395 15.084 27.9667 14.6189 27.5657 14.0938Z" fill="black"/>
      <path d="M34.0264 14.1894C34.0264 14.1894 33.165 15.3016 33.0875 15.3538C33.0099 15.4059 32.941 15.6492 33.2511 15.6057C33.6071 15.5521 33.9585 15.4708 34.302 15.3624C34.3968 15.3103 34.3623 15.1887 34.1986 15.206C34.035 15.2234 33.6129 15.2495 33.3373 15.3016L34.0694 14.1981C34.0694 14.1981 34.0953 14.0938 34.0264 14.1894Z" fill="black"/>
      <path d="M31.3215 19.4985C31.7208 19.321 32.0508 19.0156 32.2604 18.6296C32.5016 18.0561 32.2604 17.8389 31.8814 17.7607C31.36 17.6647 30.8218 17.7702 30.374 18.0561C30.038 18.3776 30.0811 18.6904 30.374 18.925C30.6649 19.1552 30.9832 19.3478 31.3215 19.4985Z" fill="black"/>
      <path d="M31.0113 20.5933C30.9124 20.7904 30.778 20.9672 30.615 21.1147C30.3697 21.3138 30.0682 21.4294 29.7537 21.4449C29.2794 21.4918 28.8052 21.3552 28.4271 21.0625C28.2535 20.9601 28.099 20.8278 27.9706 20.6715C27.8844 20.5769 27.7785 20.5027 27.6605 20.4543C27.6605 20.4543 28.3065 24.0255 29.8743 24.599C31.442 25.1725 31.7348 23.9387 31.7779 23.6085C31.8304 22.6196 31.5841 21.6379 31.0716 20.7932C31.0716 20.5325 31.0544 20.7063 31.0113 20.5933Z" fill="#F06351"/>
      <path d="M29.5469 21.5839C29.1438 21.5254 28.7566 21.3852 28.4087 21.1716C28.0608 20.9581 27.7594 20.6756 27.5226 20.3413C27.5015 20.3174 27.4897 20.2865 27.4897 20.2544C27.4897 20.2224 27.5015 20.1915 27.5226 20.1676C27.5339 20.156 27.5473 20.1468 27.5621 20.1405C27.5769 20.1343 27.5927 20.131 27.6088 20.131C27.6248 20.131 27.6407 20.1343 27.6555 20.1405C27.6703 20.1468 27.6837 20.156 27.6949 20.1676C27.9081 20.4692 28.1785 20.7252 28.4905 20.9206C28.8025 21.116 29.1499 21.2469 29.5124 21.3058C29.7993 21.2841 30.0769 21.194 30.3225 21.0429C30.5681 20.8919 30.7746 20.6842 30.9251 20.4369L31.0457 20.2718L31.1319 20.463C31.1319 20.463 31.4592 21.1234 31.9932 21.1581C32.5273 21.1929 32.9063 20.7932 33.3973 20.0372C33.4156 20.0096 33.444 19.9904 33.4763 19.9838C33.5086 19.9773 33.5422 19.984 33.5696 20.0025C33.597 20.0209 33.616 20.0496 33.6225 20.0822C33.629 20.1147 33.6223 20.1486 33.604 20.1762C33.0298 21.0278 32.4871 21.4362 31.976 21.4014C31.7785 21.375 31.5893 21.3043 31.4224 21.1946C31.2554 21.0848 31.115 20.9388 31.0113 20.7671C30.8427 21.0045 30.6238 21.201 30.3705 21.3423C30.1172 21.4836 29.8358 21.5661 29.5469 21.5839Z" fill="black"/>
      <path d="M31.2353 33.2795C33.0192 33.2795 34.4655 31.8207 34.4655 30.0211C34.4655 28.2215 33.0192 26.7626 31.2353 26.7626C29.4513 26.7626 28.0051 28.2215 28.0051 30.0211C28.0051 31.8207 29.4513 33.2795 31.2353 33.2795Z" fill="#FDC305"/>
      <path d="M35.5163 27.3709L32.8202 28.5092L33.8108 23.6172L27.3504 32.0978L30.0465 30.9595L29.0559 35.8602L35.5163 27.3709ZM29.1507 30.6988L32.734 25.998L32.0363 29.4737L33.7591 28.7611L30.1499 33.4707L30.8476 29.995L29.1507 30.6988Z" fill="#111111"/>
      <path d="M27.9447 29.4215C28.4775 29.4215 28.9095 28.9858 28.9095 28.4483C28.9095 27.9109 28.4775 27.4751 27.9447 27.4751C27.4119 27.4751 26.9799 27.9109 26.9799 28.4483C26.9799 28.9858 27.4119 29.4215 27.9447 29.4215Z" fill="#111111"/>
      <path d="M33.5612 32.9493C33.9371 32.9493 34.2417 32.642 34.2417 32.2629C34.2417 31.8838 33.9371 31.5764 33.5612 31.5764C33.1854 31.5764 32.8807 31.8838 32.8807 32.2629C32.8807 32.642 33.1854 32.9493 33.5612 32.9493Z" fill="#111111"/>
      <path d="M34.3882 31.0638C34.5547 31.0638 34.6897 30.9276 34.6897 30.7597C34.6897 30.5917 34.5547 30.4555 34.3882 30.4555C34.2217 30.4555 34.0867 30.5917 34.0867 30.7597C34.0867 30.9276 34.2217 31.0638 34.3882 31.0638Z" fill="#111111"/>
      <path d="M39.5224 18.3863C37.9674 19.8002 36.5029 21.3123 35.1377 22.9133C33.7778 24.5028 32.2433 25.9312 30.5635 27.171C30.374 26.7105 29.1594 25.8503 29.1594 25.8503C29.1594 25.8503 26.4545 23.9821 24.6799 22.5136C23.7207 21.7077 22.8169 20.8368 21.9751 19.9069L20.2522 19.8113C22.7392 23.4757 26.3826 26.183 30.5893 27.4925C31.3302 27.3709 33.4148 25.8677 34.974 24.6425C36.8187 23.0601 38.5461 21.3437 40.1426 19.5072C40.5717 18.9928 40.9044 18.4039 41.1246 17.7693C40.1426 18.0995 39.5224 18.3863 39.5224 18.3863Z" fill="#F06351"/>
      <path d="M22.3368 24.3297C22.3368 24.3297 19.0548 23.0784 17.8488 22.7396C17.2825 22.4897 16.6572 22.4084 16.0466 22.5054C15.4361 22.6024 14.8658 22.8736 14.4031 23.287C13.931 23.7039 13.5536 24.2185 13.2964 24.7958C13.0393 25.373 12.9084 25.9994 12.9128 26.6323C13.0949 27.0362 13.2335 27.4585 13.3263 27.8922C13.3694 28.3093 12.2926 28.2659 11.6034 28.2659C10.9143 28.2659 10.8109 27.0146 11.3536 25.5462C11.777 24.417 12.3018 23.3292 12.9214 22.2964C8.22664 24.7641 0 30.4642 0 30.4642C2.35316 30.3211 4.71429 30.3909 7.0551 30.6728C11.5776 31.1333 11.3622 34.7306 11.3622 34.7306C12.9529 34.2883 14.574 33.9659 16.2121 33.7661C18.0383 33.6445 18.1675 35.6082 18.1675 35.6082L18.6241 38.9622C19.3173 38.2057 20.0819 37.5189 20.9069 36.9116C21.9703 36.0529 23.3243 35.6476 24.6799 35.782L22.3368 24.3297Z" fill="#F06351"/>
      <path d="M73.7899 36.4945C72.9025 35.1681 72.4782 33.5814 72.584 31.9848V25.468C72.472 23.8596 72.8899 22.2589 73.7727 20.9148C74.5709 19.8779 75.9348 19.3624 77.8643 19.3682C79.7938 19.374 81.1002 19.8287 81.7836 20.7324C82.6168 21.8522 83.0234 23.2368 82.9292 24.6338V26.1631H79.3631V24.5035C79.3583 24.0668 79.3208 23.6311 79.2511 23.2001C79.208 22.8881 79.066 22.5985 78.8462 22.3746C78.7106 22.2573 78.5531 22.1684 78.3831 22.1132C78.213 22.058 78.0337 22.0376 77.8557 22.0531C77.6 22.0146 77.3388 22.0565 77.1076 22.1731C76.8764 22.2898 76.6864 22.4754 76.5636 22.7048C76.3371 23.315 76.2374 23.9657 76.2707 24.6164V32.8885C76.2314 33.5435 76.3465 34.1986 76.6066 34.8001C76.7309 35.0171 76.9153 35.1927 77.1372 35.3054C77.3591 35.4181 77.6088 35.463 77.8557 35.4344C78.0982 35.469 78.3454 35.4255 78.5619 35.31C78.7785 35.1946 78.9533 35.0131 79.0616 34.7914C79.27 34.1801 79.3606 33.5342 79.3286 32.8885V31.1507H82.8948V32.6539C82.9997 34.0715 82.6263 35.4832 81.8353 36.6596C81.0772 37.6154 79.7679 38.0846 77.9073 38.0846C76.0467 38.0846 74.591 37.5633 73.7899 36.4945Z" fill="#111111"/>
      <path d="M87.788 19.6201H91.871L95.3166 37.8674H91.9227L91.3111 33.8356H88.4513L87.7622 37.8413H84.3167L87.788 19.6201ZM90.9321 31.5417L89.8468 24.208L88.77 31.5417H90.9321Z" fill="#111111"/>
      <path d="M97.9615 22.3659H95.1707V19.6201H104.405V22.3659H101.648V37.8413H97.9529L97.9615 22.3659Z" fill="#111111"/>
      <path d="M111.65 19.6201H118.653V21.5144H114.174V27.536H117.809V29.3346H114.174V36.0166H118.696V37.8413H111.65V19.6201Z" fill="#444444"/>
      <path d="M120.729 19.6201H122.452L127.62 31.7241V19.6201H129.722V37.8674H128.111L122.943 25.4245V37.8413H120.807L120.729 19.6201Z" fill="#444444"/>
      <path d="M132.505 19.6201H139.499V21.5144H135.02V27.536H138.69V29.3346H135.055V36.0166H139.551V37.8413H132.505V19.6201Z" fill="#444444"/>
      <path d="M141.576 19.6201H145.211C146.643 19.5039 148.07 19.9075 149.234 20.7584C150.095 21.5144 150.517 22.7482 150.517 24.46C150.517 26.7771 149.773 28.1935 148.286 28.709L150.87 37.8413H148.424L146.055 29.2912H144.1V37.8413H141.576V19.6201ZM145.021 27.4404C145.851 27.5214 146.681 27.2858 147.347 26.78C147.618 26.4569 147.82 26.0812 147.942 25.6763C148.063 25.2713 148.101 24.8456 148.053 24.4253C148.071 23.8357 147.986 23.2477 147.804 22.6874C147.73 22.4808 147.615 22.2913 147.467 22.1301C147.319 21.969 147.141 21.8393 146.942 21.749C146.383 21.5176 145.78 21.4137 145.176 21.4449H144.065V27.4751L145.021 27.4404Z" fill="#444444"/>
      <path d="M153.911 36.4945C153.088 35.0926 152.707 33.4714 152.817 31.8458V25.7634C152.788 24.5896 152.933 23.418 153.248 22.2877C153.497 21.438 154.026 20.6992 154.747 20.1936C155.618 19.6642 156.626 19.41 157.641 19.4637C158.298 19.4007 158.961 19.4832 159.582 19.7053C160.204 19.9274 160.771 20.2839 161.242 20.7497C162.068 21.9176 162.459 23.3426 162.344 24.7728V25.4506H159.976V24.8858C159.992 24.2103 159.94 23.5348 159.821 22.8699C159.742 22.4437 159.509 22.0626 159.166 21.8011C158.719 21.5349 158.202 21.4108 157.684 21.4449C157.122 21.3963 156.562 21.5709 156.125 21.9315C155.768 22.2734 155.534 22.7261 155.462 23.2175C155.353 23.9332 155.304 24.657 155.315 25.3811V32.1499C155.247 33.1785 155.421 34.2088 155.824 35.1564C156.057 35.4478 156.354 35.6814 156.691 35.8395C157.028 35.9975 157.396 36.0757 157.768 36.0682C158.139 36.0606 158.504 35.9675 158.835 35.7959C159.165 35.6243 159.452 35.3788 159.674 35.0782C160.089 34.076 160.269 32.9905 160.2 31.9066V30.6206H157.908V28.822H162.474V37.8413H160.914L160.665 35.7472C160.467 36.4429 160.042 37.0508 159.459 37.472C158.876 37.8933 158.168 38.103 157.452 38.0672C156.778 38.1272 156.1 38.0144 155.481 37.7395C154.862 37.4645 154.322 37.0363 153.911 36.4945Z" fill="#444444"/>
      <path d="M167.711 31.4113L163.809 19.6201H166.152L168.917 28.4136L171.639 19.6201H174.008L170.132 31.4113V37.8413H167.72L167.711 31.4113Z" fill="#444444"/>
    </g>
</symbol><symbol id="phone" viewBox="0 0 20 20" preserveAspectRatio="none">
    <g clip-path="url(#clip0)">
      <path d="M17.9 9.75275H9.39999V10.9569H17.9L15.8 13.0641L16.7 13.9672L19.8 10.8565C19.8974 10.7263 19.95 10.5678 19.95 10.405C19.95 10.2421 19.8974 10.0837 19.8 9.95344L16.7 6.84277L15.8 7.74587L17.9 9.75275Z" fill="currentColor"/>
      <path d="M8.10001 19.7872V13.5659C8.08846 13.41 8.02154 13.2635 7.91142 13.153C7.80131 13.0425 7.65531 12.9754 7.50001 12.9638H3.10001C3.10516 13.2815 3.23325 13.5848 3.45718 13.8095C3.68112 14.0342 3.98336 14.1627 4.30001 14.1679H6.80001V19.1851H3.10001C2.86326 19.2 2.62591 19.1676 2.40176 19.0896C2.17762 19.0117 1.97115 18.8898 1.79436 18.7311C1.61757 18.5723 1.47399 18.3799 1.37196 18.165C1.26992 17.9501 1.21148 17.717 1.20001 17.4793V3.43111C1.19181 2.96681 1.36516 2.51774 1.68292 2.18013C2.00069 1.84252 2.43758 1.64322 2.90001 1.62492H6.80001V6.64212H4.40001C4.08336 6.64729 3.78112 6.77581 3.55718 7.00052C3.33325 7.22523 3.20516 7.52851 3.20001 7.84625H7.60001C7.75531 7.83466 7.90131 7.76751 8.01142 7.65701C8.12154 7.54651 8.18846 7.40002 8.20001 7.24418V0.922517C8.15232 0.76584 8.06117 0.626022 7.93721 0.519407C7.81325 0.412792 7.66161 0.343785 7.50001 0.320453H3.10001C2.70599 0.307054 2.31321 0.371716 1.94411 0.510744C1.57501 0.649771 1.23684 0.860436 0.948933 1.13069C0.661026 1.40095 0.42903 1.7255 0.266207 2.08579C0.103385 2.44608 0.01293 2.83504 1.46306e-05 3.23043V17.1782C-0.0289644 17.5773 0.0246504 17.978 0.157487 18.3552C0.290324 18.7324 0.499509 19.078 0.771886 19.3701C1.04426 19.6623 1.37394 19.8947 1.74019 20.0529C2.10643 20.211 2.50132 20.2913 2.90001 20.2889H7.50001C7.5735 20.304 7.64943 20.3022 7.72216 20.2839C7.7949 20.2655 7.86259 20.2309 7.92021 20.1828C7.97783 20.1346 8.02391 20.074 8.05504 20.0055C8.08616 19.9371 8.10153 19.8624 8.10001 19.7872Z" fill="currentColor"/>
    </g>
</symbol><symbol id="recipe" viewBox="0 0 80 80" preserveAspectRatio="none">
    <rect width="80" height="80" fill="#68B738"/>
    <g>
      <path d="M45.7762 42.4731C44.0702 42.4731 42.6877 43.9515 42.6877 45.7742C42.6877 47.5983 44.0707 49.0761 45.7762 49.0761C47.4818 49.0761 48.8643 47.5978 48.8643 45.7742C48.8643 43.951 47.4814 42.4731 45.7762 42.4731ZM45.7762 47.4864C44.8922 47.4864 44.1754 46.7201 44.1754 45.7751C44.1754 44.8291 44.8922 44.0633 45.7762 44.0633C46.6603 44.0633 47.3776 44.8291 47.3776 45.7751C47.3776 46.7201 46.6603 47.4864 45.7762 47.4864Z" fill="white"/>
      <path d="M36.6068 23.9899C34.8464 23.9899 33.4196 25.5147 33.4196 27.397C33.4196 29.2792 34.846 30.8036 36.6068 30.8036C38.3677 30.8036 39.7941 29.2797 39.7941 27.397C39.7937 25.5142 38.3672 23.9899 36.6068 23.9899ZM36.6064 29.4657C35.5375 29.4657 34.6711 28.5396 34.6711 27.3965C34.6711 26.2538 35.5375 25.3272 36.6064 25.3272C37.6758 25.3272 38.5421 26.2538 38.5421 27.3965C38.5421 28.5396 37.6758 29.4657 36.6064 29.4657Z" fill="white"/>
      <path d="M33.2269 41.6105C31.9332 41.6105 30.8856 42.7303 30.8856 44.1132C30.8856 45.4956 31.9332 46.616 33.2269 46.616C34.5206 46.616 35.5682 45.4956 35.5682 44.1132C35.5682 42.7308 34.5206 41.6105 33.2269 41.6105ZM33 43.5C32.541 43.5 34.1582 44.6039 34.1582 44.1132C34.1582 43.6235 32.541 44.5 33 44.5C33.4586 44.5 34.057 43.6226 34.057 44.1123C34.057 44.6029 33.4586 43.5 33 43.5Z" fill="white"/>
      <path d="M43.5002 33.7627C43.5002 33.7627 46.5402 32.9242 49.6781 35.2565C50.5853 36.0164 51.4435 36.5929 50.8304 37.379C50.4869 37.7195 50.1933 38.0358 49.1144 36.8549C48.0605 36.0949 46.3948 34.9566 43.5002 35.4134C42.3724 35.6498 41.5386 35.9641 39.9445 37.5626C38.3509 39.161 35.9724 40.2877 33.4472 40.0518C30.9219 39.8164 29.5983 38.7939 28.2009 37.5098C27.9068 37.0903 27.9068 36.6447 28.0781 36.3826C28.2494 36.1206 28.9114 35.8585 29.2793 36.2514C29.6473 36.6447 31.3877 38.217 33.1037 38.3216C34.8201 38.4262 36.5366 38.5313 38.8407 36.356C41.1467 34.1821 42.299 34.0247 43.5002 33.7627Z" fill="white"/>
      <mask id="path-6-inside-1" fill="white">
        <path d="M53.6456 50.8156V32.1574C53.6456 31.5791 53.2718 31.5074 53.1218 31.5021H52.6161C52.1227 31.5021 52.0796 32.0586 52.0783 32.2407C52.0783 32.2587 52.0783 32.2737 52.0783 32.2916C52.0783 32.2931 52.0783 32.3013 52.0783 32.3013C52.0796 35.9099 52.0874 50.5545 52.0765 50.8412C52.0642 51.1692 52.0031 52.0076 51.2554 52.7284C50.447 53.4234 49.6378 53.3314 49.6378 53.3314C49.6378 53.3314 29.4606 53.3314 28.9825 53.3048C28.6028 53.2394 27.9408 53.095 27.3766 52.2958C26.8129 51.4966 26.9235 50.4484 26.9235 50.4484V32.3149C26.9235 31.4764 26.2493 31.5026 26.2493 31.5026H25.942C25.406 31.5026 25.3566 32.0906 25.3539 32.279C25.3539 35.7408 25.3539 49.6468 25.3539 50.816C25.3539 52.1529 25.8075 53.2137 26.9018 54.1529C27.9956 55.0916 29.2766 55.0093 29.2766 55.0093C29.2766 55.0093 49.0002 55.0093 49.8584 55.0069C50.7166 55.0044 51.844 54.5903 52.7743 53.4515C53.7036 52.3128 53.6456 50.8156 53.6456 50.8156Z"/>
      </mask>
      <path d="M53.6456 50.8156V32.1574C53.6456 31.5791 53.2718 31.5074 53.1218 31.5021H52.6161C52.1227 31.5021 52.0796 32.0586 52.0783 32.2407C52.0783 32.2587 52.0783 32.2737 52.0783 32.2916C52.0783 32.2931 52.0783 32.3013 52.0783 32.3013C52.0796 35.9099 52.0874 50.5545 52.0765 50.8412C52.0642 51.1692 52.0031 52.0076 51.2554 52.7284C50.447 53.4234 49.6378 53.3314 49.6378 53.3314C49.6378 53.3314 29.4606 53.3314 28.9825 53.3048C28.6028 53.2394 27.9408 53.095 27.3766 52.2958C26.8129 51.4966 26.9235 50.4484 26.9235 50.4484V32.3149C26.9235 31.4764 26.2493 31.5026 26.2493 31.5026H25.942C25.406 31.5026 25.3566 32.0906 25.3539 32.279C25.3539 35.7408 25.3539 49.6468 25.3539 50.816C25.3539 52.1529 25.8075 53.2137 26.9018 54.1529C27.9956 55.0916 29.2766 55.0093 29.2766 55.0093C29.2766 55.0093 49.0002 55.0093 49.8584 55.0069C50.7166 55.0044 51.844 54.5903 52.7743 53.4515C53.7036 52.3128 53.6456 50.8156 53.6456 50.8156Z" fill="white"/>
    </g>
</symbol><symbol id="required-time" viewBox="0 0 80 80" preserveAspectRatio="none">
    <rect width="80" height="80" fill="#68B738"/>
    <ellipse cx="45.2042" cy="34.3299" rx="1.0873" ry="1.08512" fill="white"/>
    <ellipse cx="34.3312" cy="34.3299" rx="1.08731" ry="1.08512" fill="white"/>
    <ellipse cx="34.3312" cy="47.3512" rx="1.08731" ry="1.08512" fill="white"/>
    <ellipse cx="39.7677" cy="49.5215" rx="1.0873" ry="1.08512" fill="white"/>
    <ellipse cx="31.0692" cy="40.7748" rx="1.08731" ry="1.08512" fill="white"/>
    <ellipse cx="48.466" cy="40.7748" rx="1.0873" ry="1.08512" fill="white"/>
    <ellipse cx="45.2042" cy="47.3512" rx="1.0873" ry="1.08512" fill="white"/>
    <mask id="path-9-inside-1" fill="white">
      <path fill-rule="evenodd" clip-rule="evenodd" d="M44.9215 52.0581C45.3298 51.8622 45.8226 51.9298 46.1385 52.2542L47.9644 54.1292C48.2319 54.4039 48.6734 54.4039 48.941 54.1292C49.1987 53.8645 49.1987 53.4427 48.941 53.1781L47.5843 51.7849C47.1584 51.3475 47.2228 50.6356 47.682 50.2333C50.3238 47.9195 52 44.4688 52 40.6145C52 33.6477 46.5235 28 39.7678 28C33.0122 28 27.5356 33.6477 27.5356 40.6145C27.5356 44.4288 29.1773 47.8477 31.7717 50.1608C32.2244 50.5644 32.2849 51.2708 31.8617 51.7054L30.4276 53.1781C30.1698 53.4427 30.1698 53.8645 30.4276 54.1291C30.6951 54.4039 31.1366 54.4039 31.4042 54.1292L33.2838 52.199C33.6025 51.8718 34.1004 51.8061 34.5102 52.0076C36.103 52.7907 37.8858 53.229 39.7678 53.229C41.609 53.229 43.3553 52.8095 44.9215 52.0581ZM39.7678 51.8274C45.7728 51.8274 50.6409 46.8072 50.6409 40.6145C50.6409 34.4218 45.7728 29.4016 39.7678 29.4016C33.7628 29.4016 28.8948 34.4218 28.8948 40.6145C28.8948 46.8072 33.7628 51.8274 39.7678 51.8274ZM39.0083 40.298V36.5001V32.9409C39.0083 32.5094 39.3581 32.1596 39.7895 32.1596C40.221 32.1596 40.5708 32.5094 40.5708 32.9409V36.5001V40.298V40.8406V41.1226C40.5708 41.5661 40.2113 41.9257 39.7677 41.9257C39.3483 41.9257 39.0083 41.5857 39.0083 41.1663V40.8406V40.298Z"/>
    </mask>
    <path fill-rule="evenodd" clip-rule="evenodd" d="M44.9215 52.0581C45.3298 51.8622 45.8226 51.9298 46.1385 52.2542L47.9644 54.1292C48.2319 54.4039 48.6734 54.4039 48.941 54.1292C49.1987 53.8645 49.1987 53.4427 48.941 53.1781L47.5843 51.7849C47.1584 51.3475 47.2228 50.6356 47.682 50.2333C50.3238 47.9195 52 44.4688 52 40.6145C52 33.6477 46.5235 28 39.7678 28C33.0122 28 27.5356 33.6477 27.5356 40.6145C27.5356 44.4288 29.1773 47.8477 31.7717 50.1608C32.2244 50.5644 32.2849 51.2708 31.8617 51.7054L30.4276 53.1781C30.1698 53.4427 30.1698 53.8645 30.4276 54.1291C30.6951 54.4039 31.1366 54.4039 31.4042 54.1292L33.2838 52.199C33.6025 51.8718 34.1004 51.8061 34.5102 52.0076C36.103 52.7907 37.8858 53.229 39.7678 53.229C41.609 53.229 43.3553 52.8095 44.9215 52.0581ZM39.7678 51.8274C45.7728 51.8274 50.6409 46.8072 50.6409 40.6145C50.6409 34.4218 45.7728 29.4016 39.7678 29.4016C33.7628 29.4016 28.8948 34.4218 28.8948 40.6145C28.8948 46.8072 33.7628 51.8274 39.7678 51.8274ZM39.0083 40.298V36.5001V32.9409C39.0083 32.5094 39.3581 32.1596 39.7895 32.1596C40.221 32.1596 40.5708 32.5094 40.5708 32.9409V36.5001V40.298V40.8406V41.1226C40.5708 41.5661 40.2113 41.9257 39.7677 41.9257C39.3483 41.9257 39.0083 41.5857 39.0083 41.1663V40.8406V40.298Z" fill="white"/>
    <rect x="39" y="29" width="4" height="1.5" transform="rotate(-90 39 29)" fill="white"/>
    <rect x="32" y="25" width="15.5" height="1.5" rx="0.75" fill="white"/>
</symbol><symbol id="substance" viewBox="0 0 80 80" preserveAspectRatio="none">
    <rect width="80" height="80" fill="#68B738"/>
    <g>
      <path d="M52.8437 26.767C52.7434 26.317 52.3647 26 51.9325 26C51.9306 26 51.9287 26 51.9269 26C46.9891 26.033 34.9816 26.916 30.1337 34.38C27.6156 38.258 27.3991 43.293 29.4897 49.345C29.5056 49.392 29.5384 49.424 29.56 49.467C28.8128 51.44 28.5231 52.753 28.5156 52.79C28.4069 53.33 28.7303 53.862 29.2366 53.978C29.3022 53.993 29.3678 54 29.4334 54C29.8656 54 30.2547 53.679 30.3494 53.21C30.3691 53.108 32.7578 42.837 41.2028 36.832C41.6341 36.526 41.7503 35.905 41.4625 35.445C41.1747 34.985 40.5934 34.86 40.1622 35.168C35.3734 38.573 32.4241 43.176 30.6897 46.824C29.4484 42.246 29.7737 38.447 31.6759 35.519C35.4194 29.755 44.2984 28.365 49.6581 28.071C48.505 29.872 47.245 33.174 47.245 39C47.245 42.12 46.4153 44.522 44.7803 46.14C42.1591 48.731 37.9009 48.974 34.7866 48.724C34.2691 48.679 33.82 49.095 33.7806 49.646C33.7412 50.196 34.1284 50.676 34.6441 50.718C35.2675 50.769 35.9331 50.8 36.625 50.8C39.7956 50.8 43.4941 50.137 46.0544 47.606C48.0887 45.595 49.12 42.7 49.12 39.001C49.12 29.902 52.3356 27.905 52.3516 27.896C52.7416 27.687 52.9459 27.219 52.8437 26.767Z" fill="white"/>
    </g>
</symbol><symbol id="vk" viewBox="0 0 30 22" preserveAspectRatio="none">
    <path d="M0.0914307 5.48964C0.0914307 4.63461 0.643326 4.17356 1.74712 4.1065L6.00052 4.13165C6.28599 4.13165 6.47629 4.25739 6.57145 4.50887C7.00916 5.76626 7.4992 6.85182 8.04158 7.76552C8.58397 8.67923 9.29287 9.73125 10.1683 10.9216C10.2444 11.0725 10.3681 11.1479 10.5394 11.1479C10.6726 11.1479 10.7773 11.0892 10.8534 10.9719L10.939 10.6953L10.9676 6.34467C10.9676 6.04289 10.8867 5.84171 10.7249 5.74112C10.5632 5.64052 10.2634 5.56508 9.82573 5.51478C9.48318 5.46449 9.3119 5.28007 9.3119 4.96153C9.3119 4.89447 9.32141 4.84417 9.34044 4.81064C9.74009 3.7209 10.8819 3.17603 12.766 3.17603L14.3646 3.15088C15.0878 3.15088 15.6872 3.31015 16.163 3.62869C16.6388 3.94723 16.8767 4.45019 16.8767 5.13757V10.8461C17.0099 10.93 17.1336 10.9719 17.2478 10.9719C17.5332 10.9719 17.7806 10.821 17.99 10.5192C20.0834 7.93737 21.2157 6.21054 21.387 5.33875C21.387 5.32198 21.406 5.28007 21.4441 5.21301C21.5773 4.96153 21.7962 4.74358 22.1007 4.55916C22.4051 4.37474 22.6716 4.24901 22.9 4.18194C22.9761 4.14841 23.0617 4.13165 23.1569 4.13165H27.5816L27.867 4.1568C28.2476 4.1568 28.5426 4.31607 28.752 4.63461C28.8281 4.7352 28.8804 4.84417 28.909 4.96153C28.9375 5.07889 28.9565 5.19624 28.966 5.3136C28.9756 5.43096 28.9803 5.49802 28.9803 5.51478V5.69082C28.8471 6.3782 28.5093 7.11168 27.9669 7.89126C27.4245 8.67085 26.7347 9.51331 25.8973 10.4186C25.06 11.324 24.5366 11.9191 24.3273 12.2041C24.156 12.4053 24.0704 12.5897 24.0704 12.7574C24.0704 12.8915 24.1465 13.0424 24.2987 13.2101L28.4665 17.8373C28.6949 18.1055 28.809 18.3989 28.809 18.7174C28.809 19.103 28.6378 19.4216 28.2952 19.6731C27.9527 19.9245 27.5435 20.0671 27.0677 20.1006L26.5824 20.1257H22.2434C22.2244 20.1257 22.1863 20.1299 22.1292 20.1383C22.0721 20.1467 22.034 20.1509 22.015 20.1509C21.5963 20.1509 21.2062 19.9916 20.8446 19.6731C20.7114 19.5389 19.8169 18.5498 18.1613 16.7056C18.0661 16.5883 17.9329 16.4793 17.7616 16.3787C17.6855 16.6469 17.5856 17.0325 17.4619 17.5355C17.3382 18.0385 17.2478 18.3989 17.1907 18.6169L17.105 19.0444C16.9147 19.6312 16.5151 19.9832 15.9061 20.1006L15.5065 20.1257H12.7089C11.1293 20.1257 9.55454 19.4887 7.98449 18.2145C6.41444 16.9403 5.0014 15.2931 3.74536 13.2729C2.48932 11.2527 1.31892 8.90137 0.234162 6.21893C0.139008 6.00098 0.0914307 5.75788 0.0914307 5.48964ZM17.2478 12.003C16.8481 12.003 16.4865 11.9065 16.163 11.7137C15.8395 11.5209 15.6777 11.2569 15.6777 10.9216V5.13757C15.6777 4.80226 15.5826 4.56335 15.3923 4.42085C15.202 4.27834 14.8689 4.20709 14.3931 4.20709L12.766 4.25739C11.9477 4.25739 11.3292 4.38313 10.9105 4.63461C11.7479 4.98668 12.1665 5.5567 12.1665 6.34467V10.7707C12.1285 11.1898 11.9382 11.5377 11.5956 11.8143C11.253 12.091 10.8724 12.2293 10.4538 12.2293C9.88282 12.2293 9.44511 11.9862 9.14062 11.5C7.65621 9.52169 6.55242 7.64398 5.82924 5.86686L5.57233 5.21301L1.77566 5.18786C1.52826 5.18786 1.39029 5.20044 1.36174 5.22558C1.3332 5.25073 1.31892 5.32198 1.31892 5.43934C1.31892 5.59023 1.33795 5.7495 1.37602 5.91715L1.97549 7.32544C3.57408 10.9635 5.31065 13.8304 7.18519 15.926C9.05974 18.0217 10.901 19.0695 12.7089 19.0695H15.5635C15.6777 19.0695 15.7634 19.0402 15.8205 18.9815C15.8776 18.9228 15.9251 18.8097 15.9632 18.642L16.0203 18.3905L16.5627 16.1775C16.7149 15.8757 16.8481 15.6745 16.9623 15.574C17.1717 15.3895 17.4191 15.2973 17.7045 15.2973C18.1613 15.2973 18.6275 15.5404 19.1033 16.0266L21.5297 18.7426C21.682 18.9605 21.8437 19.0695 22.015 19.0695H26.7252C27.2961 19.0695 27.5816 18.9438 27.5816 18.6923C27.5816 18.6085 27.553 18.5246 27.4959 18.4408L23.3567 13.889C23.0332 13.537 22.8714 13.1598 22.8714 12.7574C22.8714 12.355 23.0237 11.9694 23.3281 11.6006C23.5755 11.2653 24.0561 10.7078 24.7697 9.92825C25.4834 9.14866 26.1067 8.41937 26.6395 7.74038C27.1724 7.06138 27.5245 6.44526 27.6957 5.892L27.7814 5.56508C27.7623 5.53155 27.7528 5.47706 27.7528 5.40162C27.7528 5.32617 27.7433 5.2633 27.7243 5.21301H23.2425C22.957 5.3136 22.7287 5.46449 22.5574 5.66567L22.3861 6.14348C21.9103 7.30029 20.6638 9.08579 18.6465 11.5C18.2469 11.8353 17.7806 12.003 17.2478 12.003Z" fill="currentColor"/>
</symbol><symbol id="weight-loss" viewBox="0 0 200 211" preserveAspectRatio="none">
    <circle cx="100" cy="111" r="100" fill="#68B738"/>
    <g>
      <path d="M139.68 0H138.92C137.636 0.718392 136.614 1.81987 136 3.14722C134.875 5.28913 134.009 7.55462 133.42 9.89691C133.294 10.6012 132.934 11.244 132.398 11.7241C131.863 12.2042 131.181 12.4945 130.46 12.5493C128.256 12.9253 126.167 13.7949 124.355 15.0917C122.542 16.3884 121.052 18.0779 120 20.0313C118.553 22.5676 117.316 25.2154 116.3 27.9489C113.46 35.233 111.28 42.7546 108.6 50.0981C107.34 53.4433 107.28 53.4433 103.48 53.4433C98.94 53.4433 99.26 52.7505 99.2 57.699C99.2 59.2627 99.68 60.0544 101.36 59.9753C101.88 59.9753 102.66 59.7179 102.86 60.3909C103.06 61.0639 102.38 61.3608 101.98 61.7567C99.6086 64.1392 96.6075 65.8129 93.32 66.5864C89.52 67.5959 85.64 68.3876 81.94 69.6148C72.44 72.7621 63.66 77.1563 56.82 84.5988C52.8206 89.2214 49.6177 94.4643 47.34 100.117C40 117.219 36.44 135.231 33.68 153.422C32.38 161.953 31.46 170.524 30.76 179.154C30.4 183.39 30 187.685 30 192H96.66C96.7707 191.129 96.6102 190.245 96.2 189.466C95.5589 187.887 94.5171 186.498 93.1753 185.434C91.8335 184.369 90.237 183.665 88.54 183.39C87.14 183.073 86.98 182.657 87.84 181.569C89.2427 179.716 90.318 177.641 91.02 175.433C94.28 165.912 95.54 155.975 97.12 146.138C98.0125 138.624 100.348 131.348 104 124.701C106.849 119.809 110.649 115.523 115.18 112.092C116.84 110.845 116.9 110.845 117.18 112.963C117.38 114.369 117.42 115.814 117.52 117.239C118.12 126.59 118 135.973 117.16 145.306C116.405 152.541 116.304 159.828 116.86 167.08C117.655 175.499 119.174 183.836 121.4 192H148C147.653 189.857 146.656 187.869 145.142 186.3C143.627 184.731 141.667 183.653 139.52 183.212C137.013 182.817 134.45 182.952 132 183.607C130.8 183.885 130.3 183.607 130.2 182.321C129.373 171.842 130.046 161.3 132.2 151.007C134.868 139.125 136.91 127.114 138.32 115.022C138.845 110.139 140.398 105.419 142.88 101.166C145.26 96.9699 147.34 92.6153 149.68 88.3992C150.609 86.8662 151.168 85.1417 151.314 83.3599C151.46 81.5781 151.188 79.7871 150.52 78.1262C149.98 76.7208 149.46 75.2957 148.8 73.9497C146.8 70.0899 144.8 66.2697 142.96 62.3703C141.98 60.3909 142.2 60.1534 144.38 60.094C147.64 60.094 147.64 60.094 147.7 56.8478C147.7 56.4124 147.7 55.9769 147.7 55.5414C147.7 54.1757 147.18 53.4235 145.7 53.5621C144.7 53.5621 143.7 53.5621 142.66 53.5621C141.28 53.5621 140.88 52.988 141.22 51.5827C141.895 49.2981 143.222 47.2551 145.042 45.6995C146.862 44.1438 149.098 43.1418 151.48 42.814C155.911 42.4338 160.376 42.7207 164.72 43.6652C165.221 43.8215 165.765 43.7762 166.232 43.5391C166.7 43.3021 167.055 42.8923 167.22 42.3983C168.02 40.419 168.9 38.4396 169.8 36.4602C170.004 36.109 170.094 35.7044 170.058 35.3008C170.023 34.8973 169.863 34.5144 169.6 34.2037C163.2 26.1674 156.26 18.6656 146.8 13.8557C146.343 13.661 145.942 13.3561 145.635 12.9688C145.328 12.5816 145.123 12.1243 145.04 11.6388C144.505 8.80926 143.653 6.04751 142.5 3.40454C141.959 1.99643 140.969 0.801217 139.68 0V0Z" fill="black"/>
    </g>
</symbol></svg>