<svg xmlns="http://www.w3.org/2000/svg" preserveAspectRatio="none" viewBox="0 0 80 80"><path fill="#68B738" d="M0 0h80v80H0z"/><ellipse cx="45.204" cy="34.33" rx="1.087" ry="1.085" fill="#fff"/><ellipse cx="34.331" cy="34.33" rx="1.087" ry="1.085" fill="#fff"/><ellipse cx="34.331" cy="47.351" rx="1.087" ry="1.085" fill="#fff"/><ellipse cx="39.768" cy="49.522" rx="1.087" ry="1.085" fill="#fff"/><ellipse cx="31.069" cy="40.775" rx="1.087" ry="1.085" fill="#fff"/><ellipse cx="48.466" cy="40.775" rx="1.087" ry="1.085" fill="#fff"/><ellipse cx="45.204" cy="47.351" rx="1.087" ry="1.085" fill="#fff"/><path fill-rule="evenodd" clip-rule="evenodd" d="M44.922 52.058a1.058 1.058 0 011.217.196l1.825 1.875a.682.682 0 00.977-.95l-1.357-1.394c-.426-.438-.361-1.15.098-1.552C50.324 47.92 52 44.47 52 40.615 52 33.648 46.523 28 39.768 28c-6.756 0-12.232 5.648-12.232 12.614 0 3.815 1.641 7.234 4.236 9.547.452.403.513 1.11.09 1.544l-1.434 1.473a.681.681 0 10.976.951l1.88-1.93a1.058 1.058 0 011.226-.191 11.878 11.878 0 005.258 1.221c1.841 0 3.587-.42 5.154-1.17zm-5.154-.23c6.005 0 10.873-5.02 10.873-11.214 0-6.192-4.868-11.212-10.873-11.212-6.005 0-10.873 5.02-10.873 11.212 0 6.193 4.868 11.213 10.873 11.213zm-.76-11.53V32.94a.781.781 0 111.563 0v8.183c0 .443-.36.803-.803.803a.76.76 0 01-.76-.76v-.868z" fill="#fff"/><path fill="#fff" d="M39 29v-4h1.5v4z"/><rect x="32" y="25" width="15.5" height="1.5" rx=".75" fill="#fff"/></svg>